<svg width="160" height="55" viewBox="0 0 160 55" fill="none" xmlns="http://www.w3.org/2000/svg">
<g clip-path="url(#clip0_120_1498)">
<path d="M119.217 33.4261H123.393V12.2422L119.217 12.6143V33.4261ZM121.292 3.6298C120.914 3.62953 120.539 3.70468 120.19 3.85084C119.841 3.99701 119.525 4.21125 119.26 4.48104C118.995 4.75083 118.787 5.07074 118.647 5.42204C118.507 5.77334 118.439 6.14898 118.446 6.52697C118.446 7.28127 118.746 8.00467 119.28 8.53804C119.813 9.07141 120.537 9.37105 121.292 9.37105C122.047 9.37105 122.77 9.07141 123.304 8.53804C123.838 8.00467 124.138 7.28127 124.138 6.52697C124.111 4.93205 122.861 3.6298 121.292 3.6298ZM155.255 12.2417L149.244 26.196L142.835 12.2422H134.51V10.4082C134.51 8.22858 135.521 7.32485 137.595 7.32485C138.314 7.33764 139.028 7.43577 139.723 7.61719L140.654 4.29478C139.333 3.85547 137.949 3.63991 136.557 3.65701C132.514 3.65701 130.334 6.28839 130.334 10.1158V12.2422L126.77 12.5345V15.8843H130.334V33.4261H134.509V15.8571H139.962L147.195 30.9278C146.584 32.2568 145.839 33.7453 144.669 34.6491C143.631 35.473 142.302 35.5526 141.025 35.2868L140.041 38.7158C141.929 39.4068 144.296 39.327 146.052 38.3702C147.966 37.307 149.242 35.3135 150.094 33.3466L159.67 12.1624H155.229V12.2422L155.255 12.2417ZM105.387 30.2631C101.903 30.2366 98.9776 27.366 98.9776 22.821C98.9776 18.2492 101.877 15.4051 105.387 15.3521C108.871 15.3786 111.797 18.2492 111.797 22.821C111.797 27.366 108.871 30.2631 105.387 30.2631ZM105.387 11.6575C104.189 11.646 103.001 11.8727 101.891 12.3244C100.782 12.7762 99.7734 13.4439 98.9245 14.2889V4.24169L95.0153 4.58729V33.4527H98.9245V31.4061C99.7734 32.251 100.782 32.9188 101.891 33.3706C103.001 33.8223 104.189 34.049 105.387 34.0375C111.292 34.011 115.813 29.3594 115.813 22.8475C115.813 16.3356 111.264 11.7104 105.387 11.6575ZM59.7216 15.4051C62.009 15.4317 64.0835 16.7874 65.2011 18.8611L68.5789 16.7613C67.6908 15.1998 66.4018 13.9035 64.8448 13.0064C63.2878 12.1093 61.5194 11.6438 59.7223 11.658C53.7917 11.6845 49.2966 16.3361 49.2966 22.848C49.2966 29.3599 53.7905 33.9849 59.7223 34.038C61.5205 34.0579 63.2911 33.5948 64.8491 32.697C66.407 31.7993 67.6952 30.5 68.5789 28.9347L65.2011 26.8349C64.0842 28.9347 62.0103 30.2909 59.7216 30.2909C56.2376 30.2631 53.3117 27.3925 53.3117 22.821C53.3117 18.2494 56.2376 15.4317 59.7216 15.4051ZM80.5996 30.2631C77.1156 30.2366 74.1899 27.366 74.1899 22.821C74.1899 18.2492 77.0891 15.4051 80.5996 15.3521C84.0838 15.3786 87.0093 18.2492 87.0093 22.821C86.9828 27.366 84.084 30.2631 80.5996 30.2631ZM87.0625 14.2889C86.2136 13.4439 85.2051 12.7762 84.0955 12.3244C82.986 11.8727 81.7977 11.646 80.5996 11.6575C74.6953 11.684 70.174 16.3356 70.174 22.8475C70.174 29.3594 74.6679 33.9844 80.5996 34.0375C81.7977 34.049 82.986 33.8223 84.0955 33.3706C85.2051 32.9188 86.2136 32.251 87.0625 31.4061V33.4527H90.9717V12.2156L87.0625 12.5612V14.2889ZM14.3751 30.7684L22.1945 38.689L30.0129 30.7684C30.3529 30.4272 30.757 30.1564 31.202 29.9717C31.647 29.787 32.1242 29.6919 32.606 29.6919C33.0879 29.6919 33.565 29.787 34.01 29.9717C34.455 30.1564 34.8591 30.4272 35.1992 30.7684C35.8895 31.4704 36.2764 32.4154 36.2764 33.3997C36.2764 34.3841 35.8895 35.329 35.1992 36.0311L22.2202 49.188L9.18896 36.0309C5.74577 32.516 3.8172 27.793 3.81651 22.874C3.81651 12.6143 12.0346 4.26823 22.1678 4.26823C24.5846 4.27116 26.9767 4.7544 29.2049 5.68983C31.4331 6.62525 33.4529 7.99419 35.1467 9.71698C35.8371 10.4191 36.2239 11.364 36.2239 12.3484C36.2239 13.3327 35.8371 14.2777 35.1467 14.9797C34.8067 15.3209 34.4026 15.5916 33.9576 15.7764C33.5126 15.9611 33.0355 16.0562 32.5537 16.0562C32.0718 16.0562 31.5947 15.9611 31.1497 15.7764C30.7047 15.5916 30.3006 15.3209 29.9606 14.9797C28.9401 13.9428 27.7229 13.1195 26.3803 12.5582C25.0377 11.9968 23.5966 11.7086 22.1412 11.7104C16.0507 11.7104 11.1038 16.7074 11.1038 22.9004C11.1346 25.8472 12.3072 28.6673 14.3751 30.7682V30.7684ZM22.1678 15.4051C23.1332 15.4098 24.0882 15.6047 24.9782 15.9787C25.8681 16.3527 26.6755 16.8985 27.3541 17.5847C28.0336 18.273 28.8432 18.8195 29.7357 19.1925C30.6283 19.5655 31.5862 19.7576 32.5537 19.7576C33.5211 19.7576 34.479 19.5655 35.3716 19.1925C36.2642 18.8195 37.0737 18.273 37.7532 17.5847C39.122 16.1744 39.8875 14.2868 39.8875 12.322C39.8875 10.3572 39.122 8.46959 37.7532 7.05922C35.7122 5.00189 33.2848 3.36763 30.6102 2.25025C27.9357 1.13288 25.0666 0.554382 22.1678 0.547974C10.0134 0.547139 0.120166 10.5417 0.120166 22.874C0.107856 28.7824 2.43057 34.4566 6.58301 38.6623L22.1678 54.4509L37.7532 38.6627C39.122 37.2523 39.8876 35.3647 39.8876 33.3999C39.8876 31.4351 39.122 29.5475 37.7532 28.1371C37.0737 27.4489 36.2642 26.9024 35.3716 26.5294C34.479 26.1563 33.5211 25.9643 32.5537 25.9643C31.5862 25.9643 30.6283 26.1563 29.7357 26.5294C28.8432 26.9024 28.0336 27.4489 27.3541 28.1371L22.1678 33.4264L16.9816 28.1371C15.6098 26.7292 14.8458 24.8395 14.8539 22.8744C14.8369 21.9023 15.0133 20.9365 15.3728 20.033C15.7324 19.1296 16.2679 18.3065 16.9483 17.6116C17.6288 16.9167 18.4405 16.3639 19.3365 15.9851C20.2325 15.6063 21.1949 15.4092 22.1678 15.4051Z" fill="white"/>
</g>
<defs>
<clipPath id="clip0_120_1498">
<rect width="159.55" height="53.9035" fill="white" transform="translate(0.119141 0.546265)"/>
</clipPath>
</defs>
</svg>
