<svg width="117" height="116" viewBox="0 0 117 116" fill="none" xmlns="http://www.w3.org/2000/svg">
<path d="M0.00606212 93.8911C0.897193 91.6824 2.67946 90.9068 4.90425 90.7159C6.67084 90.5606 8.42819 90.3139 10.1692 89.9766C10.7236 89.8267 11.1963 89.4641 11.4847 88.9677C12.5183 87.0377 13.4276 85.0289 14.4066 83.0808C15.1583 81.5659 16.3253 80.6933 18.0803 80.6994C18.8626 80.668 19.6354 80.8806 20.2915 81.3079C20.9475 81.7351 21.4544 82.3558 21.7418 83.0838C22.1055 83.8928 22.548 84.2503 23.4452 84.1382C24.198 84.0885 24.953 84.0824 25.7064 84.12C16.7708 73.0552 13.561 60.6027 16.6769 46.8807C19.7928 33.1587 28.1949 23.43 40.9253 17.3825C40.1615 16.1706 39.6432 14.9587 40.1494 13.5195C40.701 11.9501 41.7559 10.9775 43.3987 10.723C45.5204 10.3928 47.6422 10.0838 49.7851 9.8141C50.6944 9.702 51.2613 9.35054 51.6523 8.4719C52.4979 6.57524 53.4709 4.73918 54.3802 2.87282C55.1228 1.35792 56.2928 0.448982 58.0175 0.448982C59.7967 0.427774 61.0091 1.30945 61.776 2.87282C62.6853 4.73918 63.6674 6.57524 64.5039 8.4719C64.9192 9.40508 65.5618 9.70503 66.4954 9.81713C68.4777 10.0595 70.4539 10.3494 72.4241 10.6867C75.7855 11.2593 77.1041 14.0437 75.4552 16.9947C75.3824 17.122 75.3309 17.2614 75.249 17.431C79.862 19.4786 84.0709 22.3354 87.6764 25.866C94.8661 32.9709 99.1398 41.521 100.289 51.6011C101.169 59.0768 100.036 66.6519 97.006 73.543C96.4968 74.7155 95.548 75.1457 94.5599 74.6973C93.6506 74.2853 93.3808 73.346 93.8355 72.1765C93.9295 71.9281 94.0386 71.6887 94.1386 71.4433C96.0906 66.7471 97.1909 61.8449 97.0848 56.7639C96.7332 40.1 88.9828 28.1323 74.0972 20.7244C72.8606 20.1185 71.9755 20.073 71.1662 21.2728C71.0223 21.4485 70.8596 21.6079 70.6812 21.7485C69.4203 22.9604 69.2142 23.7572 69.8932 25.3206C70.0235 25.6236 70.4782 25.8296 70.8267 25.9842C79.9199 30.0199 86.1972 36.7036 89.3586 46.1475C93.9416 59.821 88.8524 75.0457 77.0737 83.3535C76.8131 83.5383 76.5615 83.7382 76.0644 84.1139C79.3622 84.1139 82.369 84.1139 85.3758 84.0927C85.6486 84.0927 85.982 83.7897 86.1821 83.5625C87.4309 82.0961 88.6736 80.6206 89.8739 79.1148C90.7832 77.9907 91.6562 77.712 92.5594 78.3694C93.4627 79.0269 93.4687 80.0479 92.6655 81.1659C92.3109 81.6568 91.9532 82.1446 91.5834 82.6233C91.2136 83.102 90.8893 83.4898 90.3922 84.1049C91.5713 84.1049 92.5473 84.1957 93.49 84.0594C93.8294 84.0079 94.1598 83.4534 94.372 83.0626C95.5632 80.8478 97.8668 79.9752 99.8885 81.172C100.675 81.6779 101.322 82.374 101.768 83.1959C102.801 85.038 103.699 86.962 104.584 88.8828C104.712 89.212 104.934 89.4965 105.222 89.7015C105.51 89.9065 105.852 90.0232 106.205 90.0372C108.412 90.3069 110.618 90.6098 112.81 90.9886C113.549 91.0882 114.242 91.4026 114.803 91.8928C115.365 92.383 115.77 93.0273 115.968 93.7457C116.213 94.4287 116.254 95.1677 116.087 95.8737C115.92 96.5796 115.553 97.2221 115.029 97.7238C113.465 99.3175 111.882 100.896 110.237 102.402C109.948 102.641 109.735 102.957 109.622 103.314C109.509 103.671 109.502 104.053 109.6 104.414C109.954 106.343 110.299 108.276 110.637 110.213C111.216 113.545 109.185 115.921 106.132 115.466C105.578 115.363 105.043 115.171 104.55 114.897C102.671 113.933 100.795 112.958 98.9459 111.934C98.6791 111.763 98.3685 111.675 98.052 111.678C97.7355 111.681 97.4269 111.776 97.1636 111.952C95.3147 112.976 93.4293 113.93 91.5622 114.921C89.9982 115.751 88.4372 115.845 86.9792 114.748C85.5213 113.651 85.0666 112.215 85.4637 110.428C85.7668 109.143 85.9062 107.825 86.1396 106.38H84.8939H72.9848C71.6785 106.38 70.8631 105.756 70.8207 104.726C70.7782 103.696 71.5997 102.938 72.9667 102.935C76.9737 102.935 80.9838 102.935 84.9909 102.935H85.8699C84.4028 101.332 82.9358 99.6689 81.4021 98.0722C80.3685 96.9997 79.7532 95.8332 80.0169 94.3092C80.1423 93.4411 80.5522 92.6392 81.1824 92.0289C81.8126 91.4187 82.6276 91.0347 83.4996 90.937C85.7032 90.6341 87.9037 90.2826 90.1133 90.0099C91.5561 89.8342 91.5198 88.5526 92.1442 87.5861H24.1636C24.6243 89.5009 24.8941 89.7463 26.8734 90.0524C28.7738 90.3553 30.6743 90.6583 32.5778 90.931C34.2116 91.1764 35.3967 92.0157 35.9483 93.5881C36.5 95.1606 36.109 96.6179 34.936 97.8632C33.3507 99.5356 31.7928 101.232 30.2469 102.893C30.3985 102.893 30.7501 102.935 31.0987 102.935H64.2251C66.0437 102.935 66.8985 103.499 66.8803 104.662C66.8621 105.826 66.0104 106.365 64.1917 106.365H31.4078H30.0287C30.2712 107.88 30.4833 109.298 30.7349 110.722C30.9005 111.467 30.8418 112.244 30.5661 112.956C30.2905 113.667 29.8103 114.282 29.1861 114.721C28.6057 115.188 27.8999 115.472 27.1579 115.537C26.4159 115.602 25.6713 115.446 25.0184 115.088C23.0209 114.1 21.0537 113.055 19.1017 111.979C18.4046 111.594 17.8469 111.543 17.1194 111.958C15.319 112.985 13.4549 113.906 11.6211 114.879C10.1055 115.684 8.59002 115.809 7.12602 114.812C5.66202 113.815 5.18614 112.352 5.45894 110.646C5.79033 108.596 6.15103 106.551 6.54102 104.511C6.71076 103.623 6.58043 102.944 5.856 102.302C4.55568 101.147 3.30385 99.9295 2.12174 98.6661C1.3367 97.8238 0.706236 96.8482 0 95.918L0.00606212 93.8911ZM40.0736 84.1049C39.1643 83.4231 38.4762 82.9293 37.8125 82.3991C30.8592 76.8848 26.7915 69.7012 25.4669 60.945C25.2517 59.5301 25.7701 58.6272 26.7885 58.4545C27.9282 58.2637 28.6071 58.8999 28.8708 60.4027C30.7319 71.4888 36.7698 79.3117 47.0784 83.7897C47.597 84.0012 48.152 84.1093 48.7121 84.1079C54.6075 84.1291 60.506 84.1079 66.4014 84.1382C67.819 84.1826 69.2251 83.87 70.4903 83.2292C81.1384 77.7968 87.0247 69.1497 87.5127 57.2032C87.8764 48.3562 84.4817 40.8241 78.0497 34.7191C75.9032 32.6766 73.4314 31.0055 70.7358 29.7744C70.7158 29.9159 70.7087 30.0589 70.7146 30.2016C71.0177 31.9953 70.5903 33.5344 69.0414 34.5858C67.4926 35.6371 65.9194 35.3917 64.3494 34.5312C62.5974 33.5677 60.8 32.683 59.0541 31.7105C58.7734 31.5259 58.4455 31.426 58.1096 31.4228C57.7736 31.4196 57.4438 31.5131 57.1597 31.6923C55.1774 32.78 53.1799 33.8526 51.1461 34.8433C50.6148 35.117 50.0281 35.2662 49.4306 35.2798C48.833 35.2933 48.2402 35.1708 47.697 34.9215C47.1538 34.6722 46.6745 34.3027 46.2953 33.8408C45.9161 33.379 45.647 32.837 45.5083 32.2558C45.3264 31.5135 45.481 30.6894 45.481 29.7896C45.0203 30.0017 44.6445 30.1532 44.2929 30.344C38.7296 33.2838 34.2599 37.9343 31.5442 43.6085C30.1549 46.5073 29.2341 49.6079 28.8163 52.7949C28.6647 53.8795 27.9585 54.4552 26.9794 54.3855C26.0004 54.3158 25.4275 53.6311 25.4245 52.5313C25.4136 52.2273 25.4319 51.9229 25.4791 51.6223C27.6463 39.5031 34.2691 30.8924 45.5568 25.9145C45.8585 25.8061 46.1156 25.6004 46.2873 25.3297C46.9359 23.8148 46.7238 22.9331 45.5022 21.7515C45.2368 21.5411 44.9931 21.3046 44.7748 21.0456C44.0807 20.0397 43.335 20.1366 42.2954 20.6123C26.837 27.5324 17.6832 43.1813 19.2593 60.2239C20.0747 69.2194 23.712 76.9303 29.8923 83.4595C30.1378 83.7201 30.4773 84.0655 30.7774 84.0655C33.7811 84.123 36.788 84.1049 40.0736 84.1049ZM8.85372 111.464C8.89009 112.218 9.35385 112.182 9.98127 111.852C11.9151 110.831 13.8732 109.852 15.7858 108.789C16.483 108.367 17.2822 108.145 18.0969 108.145C18.9117 108.145 19.7109 108.367 20.4081 108.789C22.2267 109.782 24.0727 110.734 25.9186 111.676C26.2884 111.824 26.6723 111.935 27.0643 112.006C27.1158 111.579 27.2704 111.137 27.2068 110.728C26.9037 108.749 26.5581 106.789 26.1914 104.814C25.858 103.014 26.1914 101.481 27.6069 100.187C29.2012 98.7388 30.7076 97.1936 32.2292 95.6666C32.4444 95.4484 32.6869 95.0606 32.6324 94.8273C32.5778 94.594 32.1353 94.3971 31.8564 94.3668C29.6983 94.0305 27.5341 93.7124 25.3669 93.4336C23.6998 93.2185 22.4904 92.4338 21.7539 90.8886C20.7991 88.8768 19.8049 86.8862 18.7926 84.9047C18.5852 84.6168 18.3359 84.3615 18.053 84.1473C17.8093 84.3645 17.5944 84.6119 17.4134 84.8835C16.4071 86.868 15.4129 88.8586 14.4521 90.8674C14.1436 91.5616 13.6577 92.1624 13.0431 92.6092C12.4285 93.0559 11.707 93.333 10.9512 93.4124C8.78704 93.7154 6.62286 94.0184 4.46172 94.3547C4.11994 94.4576 3.7929 94.6042 3.48875 94.791C3.6154 95.1161 3.78679 95.4221 3.99797 95.6999C5.57412 97.2784 7.18967 98.8176 8.77794 100.384C9.32701 100.881 9.7342 101.515 9.95787 102.221C10.1815 102.927 10.2137 103.679 10.051 104.401C9.60845 106.698 9.26291 109.013 8.85069 111.464H8.85372ZM88.9221 111.031C88.8585 112.103 89.1252 112.276 90.0406 111.803C91.9835 110.797 93.9264 109.788 95.8451 108.74C96.5114 108.34 97.2726 108.126 98.0498 108.12C98.8269 108.113 99.5916 108.315 100.264 108.704C102.192 109.737 104.126 110.758 106.072 111.734C106.406 111.848 106.755 111.912 107.108 111.924C107.195 111.579 107.234 111.223 107.227 110.867C106.899 108.746 106.599 106.607 106.154 104.505C105.775 102.705 106.354 101.338 107.621 100.129C109.209 98.6166 110.777 97.0845 112.325 95.5333C112.513 95.3454 112.722 94.9849 112.661 94.7879C112.587 94.6662 112.486 94.5626 112.367 94.4845C112.247 94.4064 112.112 94.3559 111.97 94.3365C109.849 94.0062 107.727 93.6608 105.59 93.4276C103.771 93.2276 102.48 92.4186 101.689 90.7613C100.78 88.8546 99.8471 86.9599 98.8913 85.0774C98.6521 84.723 98.3701 84.3994 98.0517 84.1139C97.7738 84.3908 97.525 84.6954 97.3091 85.0229C96.3331 86.9377 95.3631 88.8556 94.4447 90.7977C93.7112 92.3459 92.5018 93.1427 90.8469 93.373C88.6827 93.676 86.5185 93.979 84.3604 94.3213C84.0573 94.3668 83.6208 94.5516 83.5632 94.7576C83.5056 94.9637 83.739 95.3818 83.9542 95.5999C85.4455 97.1148 86.9156 98.6297 88.5008 100.045C89.986 101.387 90.3528 102.965 89.983 104.862C89.5617 106.974 89.2525 109.064 88.9221 111.031ZM48.8485 31.15C48.797 31.7711 49.1516 32.0044 49.9003 31.6196C51.8766 30.6016 53.8407 29.5745 55.8048 28.5049C57.3203 27.6687 58.7904 27.6384 60.3211 28.4807C62.2731 29.5533 64.2615 30.5682 66.2347 31.5863C66.4741 31.7105 66.9288 31.8256 67.0288 31.7135C67.1221 31.589 67.1899 31.4472 67.2284 31.2965C67.2669 31.1457 67.2753 30.9889 67.2531 30.8349C66.9197 28.6716 66.5923 26.5023 66.165 24.3572C65.8225 22.6423 66.2286 21.2395 67.4895 20.0367C69.1061 18.4975 70.7004 16.9351 72.2725 15.3496C72.4921 15.1154 72.6099 14.8038 72.5999 14.483C72.5999 14.3376 72.1483 14.1588 71.8846 14.1164C69.8356 13.7953 67.7866 13.4529 65.7285 13.2075C63.8068 12.9863 62.3943 12.1713 61.6002 10.3352C60.8061 8.49917 59.8998 6.80551 58.9965 5.0664C58.7265 4.6482 58.4137 4.25929 58.0629 3.90599C57.7401 4.24409 57.4517 4.61353 57.2021 5.00883C56.2413 6.89337 55.3259 8.79912 54.3923 10.6958C54.1172 11.322 53.686 11.8673 53.14 12.2794C52.5939 12.6916 51.9513 12.9569 51.2734 13.0499C49.0001 13.3953 46.7268 13.7316 44.4565 14.1013C44.1238 14.2043 43.8067 14.3521 43.5139 14.5406C43.6444 14.8723 43.8187 15.1851 44.0322 15.4707C45.5821 17.024 47.1481 18.5611 48.7303 20.0821C49.9427 21.2577 50.355 22.6393 50.0337 24.3238C49.6063 26.5325 49.2577 28.7685 48.8485 31.15Z" fill="#F8FFFF"/>
<path d="M58.113 93.4817C62.9142 93.4817 67.7124 93.4666 72.5106 93.5029C73.1424 93.487 73.7658 93.651 74.308 93.9758C75.2991 94.6669 75.0536 96.3097 73.9352 96.7825C73.512 96.9406 73.0621 97.0148 72.6106 97.0008C62.9354 97.0129 53.2623 97.0129 43.5912 97.0008C42.1393 97.0008 41.4179 96.5158 41.2846 95.5095C41.1179 94.2758 41.912 93.4726 43.379 93.4666C47.571 93.4666 51.766 93.4666 55.961 93.4666L58.113 93.4817Z" fill="#F8FFFF"/>
<path d="M49.377 55.552C48.5495 58.4334 47.7615 61.0693 47.0401 63.7325C46.737 64.8414 46.1489 65.5716 44.9789 65.6685C43.9757 65.7503 43.227 65.0444 42.8269 63.7204C42.0934 61.2965 41.372 58.8727 40.6445 56.467C40.5839 56.2701 40.493 56.0853 40.299 55.6035C39.7625 58.5212 39.2836 61.1329 38.7835 63.7446C38.544 65.0504 37.8347 65.6503 36.7345 65.4898C35.7342 65.3443 35.1795 64.5505 35.3978 63.2659C36.0828 59.209 36.8315 55.1672 37.5559 51.1194C37.6832 50.4135 37.7711 49.6984 37.9317 48.9985C38.1651 47.9805 38.7744 47.2806 39.8625 47.2322C40.3409 47.1781 40.8224 47.303 41.2141 47.5827C41.6059 47.8624 41.8802 48.2772 41.9843 48.7471C42.8107 51.5304 43.6372 54.3138 44.4637 57.0972C44.5667 57.4426 44.688 57.7819 44.9092 58.4364C45.2699 57.2245 45.5548 56.3155 45.8185 55.3884C46.4248 53.2494 47.031 51.1043 47.6372 48.9682C47.9858 47.7563 48.7799 47.0898 49.7953 47.1928C50.8986 47.3049 51.5382 47.9442 51.7534 49.0652C52.6354 53.6947 53.5477 58.3213 54.4358 62.9538C54.6056 63.8385 54.6177 64.705 53.7054 65.2625C52.5627 65.9594 51.332 65.3019 51.0502 63.8325C50.5894 61.4238 50.1408 59.012 49.6862 56.6034C49.6407 56.3216 49.5316 56.0519 49.377 55.552Z" fill="#F8FFFF"/>
<path d="M72.3878 59.1149C72.3878 60.751 72.3878 62.2234 72.3878 63.6929C72.3878 64.8806 71.6694 65.6744 70.6691 65.6804C69.6689 65.6865 68.9717 64.9048 68.9687 63.6929C68.9505 58.8129 68.9505 53.9339 68.9687 49.0559C68.9687 47.8652 69.5749 47.1987 70.7661 47.1774C72.4253 47.1157 74.0867 47.1602 75.7401 47.3108C78.9136 47.6713 81.0384 50.4193 80.8262 53.7036C80.6383 56.6425 78.0316 59.0694 75.0036 59.1118C74.1639 59.124 73.3395 59.1149 72.3878 59.1149ZM72.4484 50.695V55.676C73.2637 55.676 74.0094 55.676 74.752 55.676C75.0147 55.6582 75.2743 55.6084 75.5249 55.5276C76.0965 55.3846 76.5979 55.0416 76.9382 54.5608C77.2785 54.08 77.4352 53.4932 77.3799 52.9068C77.3073 52.3243 77.0328 51.7857 76.6042 51.3845C76.1757 50.9832 75.6201 50.7446 75.0339 50.7102C74.2094 50.6587 73.3789 50.695 72.4484 50.695Z" fill="#F8FFFF"/>
<path d="M60.8844 59.1453L64.2186 49.2015C64.3035 48.95 64.3701 48.6925 64.4702 48.4501C64.8884 47.4351 65.7978 47.0019 66.7526 47.3473C67.1787 47.5161 67.5206 47.8468 67.7035 48.2669C67.8864 48.6871 67.8954 49.1626 67.7285 49.5893C66.6162 52.9979 65.4765 56.3973 64.3459 59.7967C63.8821 61.1935 63.4002 62.5842 62.9516 63.9839C62.6273 64.9929 61.9665 65.6412 60.9117 65.6503C59.8569 65.6594 59.1961 64.9929 58.8536 64.0021C57.2199 59.2605 55.574 54.5219 53.9494 49.7772C53.5432 48.5925 53.9069 47.6563 54.8587 47.32C55.8771 46.9443 56.7652 47.4261 57.1987 48.6501C58.2777 51.7072 59.3204 54.7764 60.3964 57.8395C60.5146 58.2182 60.6692 58.5909 60.8844 59.1453Z" fill="#F8FFFF"/>
</svg>
