<svg width="105" height="106" viewBox="0 0 105 106" fill="none" xmlns="http://www.w3.org/2000/svg">
<path d="M48.9139 98.3938H55.9016C56.8664 98.3938 57.6485 97.6116 57.6485 96.6468C57.6485 95.6821 56.8664 94.8999 55.9016 94.8999H48.9139C47.9492 94.8999 47.167 95.6821 47.167 96.6468C47.167 97.6116 47.9492 98.3938 48.9139 98.3938Z" fill="#F8FFFF"/>
<path d="M22.7098 26.7979C23.6746 26.7979 24.4567 26.016 24.4567 25.0517V14.5745H80.3584V28.5441C80.3584 29.5085 81.1406 30.2903 82.1054 30.2903C83.0701 30.2903 83.8523 29.5085 83.8523 28.5441V7.58967C83.8523 4.44651 79.8204 0.604858 75.1176 0.604858H29.6975C24.876 0.610534 20.9686 4.51635 20.9629 9.33588V25.0517C20.9629 26.016 21.7451 26.7979 22.7098 26.7979ZM24.4567 9.33588C24.4567 6.44264 26.8031 4.09727 29.6975 4.09727H75.1176C78.1451 4.09727 80.3584 6.54195 80.3584 7.58967V11.0821H24.4567V9.33588Z" fill="#F8FFFF"/>
<path d="M82.1054 77.4379C81.1406 77.4379 80.3584 78.2197 80.3584 79.1841V87.9151H24.4567V80.9303C24.4567 79.9659 23.6746 79.1841 22.7098 79.1841C21.7451 79.1841 20.9629 79.9659 20.9629 80.9303V96.6461C20.9686 101.466 24.876 105.371 29.6975 105.377H75.1176C79.9392 105.371 83.8466 101.466 83.8523 96.6461V79.1841C83.8523 78.2197 83.0701 77.4379 82.1054 77.4379ZM80.3584 96.6461C80.3584 99.5393 78.0121 101.885 75.1176 101.885H29.6975C26.8031 101.885 24.4567 99.5393 24.4567 96.6461V91.4075H80.3584V96.6461Z" fill="#F8FFFF"/>
<path d="M48.9136 5.84351H45.4198C44.455 5.84351 43.6729 6.62569 43.6729 7.59043C43.6729 8.55517 44.455 9.33736 45.4198 9.33736H48.9136C49.8784 9.33736 50.6606 8.55517 50.6606 7.59043C50.6606 6.62569 49.8784 5.84351 48.9136 5.84351Z" fill="#F8FFFF"/>
<path d="M59.3951 5.84351H55.9012C54.9365 5.84351 54.1543 6.62569 54.1543 7.59043C54.1543 8.55517 54.9365 9.33736 55.9012 9.33736H59.3951C60.3598 9.33736 61.142 8.55517 61.142 7.59043C61.142 6.62569 60.3598 5.84351 59.3951 5.84351Z" fill="#F8FFFF"/>
<path d="M104.414 34.4131C104.081 34.0135 103.588 33.7823 103.068 33.7828H57.215L56.3241 27.7776C55.9308 25.2155 53.7323 23.3193 51.1392 23.3055H43.6729V26.7979H51.1392C52.0059 26.7973 52.742 27.432 52.8687 28.2892L58.9724 69.4734C59.3657 72.0355 61.5642 73.9317 64.1573 73.9454H68.4513C69.3979 76.6612 72.3677 78.0957 75.0844 77.1497C76.5861 76.6267 77.7668 75.4467 78.29 73.9454H85.9205C86.8853 76.6732 89.8797 78.1027 92.6084 77.1382C95.3371 76.1736 96.7674 73.1806 95.8025 70.453C94.8377 67.7253 91.8433 66.2958 89.1146 67.2603C87.6221 67.7877 86.4481 68.9613 85.9205 70.453H78.29C77.3433 67.7373 74.3736 66.3028 71.6569 67.2488C70.1552 67.7717 68.9745 68.9517 68.4513 70.453H64.1573C63.2926 70.4485 62.5593 69.8163 62.4279 68.9618L61.8723 65.2144H97.8276C98.6672 65.2138 99.3878 64.6161 99.5431 63.7913L104.784 35.852C104.881 35.3412 104.745 34.8137 104.414 34.4131ZM90.8399 70.453C91.8046 70.453 92.5868 71.2349 92.5868 72.1992C92.5868 73.1636 91.8046 73.9454 90.8399 73.9454C89.8752 73.9454 89.093 73.1636 89.093 72.1992C89.093 71.2349 89.8752 70.453 90.8399 70.453ZM73.3706 70.453C74.3354 70.453 75.1175 71.2349 75.1175 72.1992C75.1175 73.1636 74.3354 73.9454 73.3706 73.9454C72.4059 73.9454 71.6237 73.1636 71.6237 72.1992C71.6237 71.2349 72.4059 70.453 73.3706 70.453ZM96.3777 61.722H61.3552L57.7339 37.2752H100.972L96.3777 61.722Z" fill="#F8FFFF"/>
<path d="M45.4201 52.9909C45.4201 40.4536 35.2526 30.2903 22.7101 30.2903C10.1676 30.2903 0 40.4536 0 52.9909C0 65.5282 10.1676 75.6916 22.7101 75.6916C35.2464 75.6772 45.4057 65.5221 45.4201 52.9909ZM3.49385 52.9909C3.49385 42.3825 12.0973 33.7827 22.7101 33.7827C33.3229 33.7827 41.9263 42.3825 41.9263 52.9909C41.9263 63.5993 33.3229 72.1992 22.7101 72.1992C12.1025 72.1867 3.5063 63.5941 3.49385 52.9909Z" fill="#F8FFFF"/>
<path d="M24.4573 66.9606V64.9664C28.1872 64.0069 30.4327 60.2065 29.4727 56.4781C28.6787 53.3948 25.8957 51.2408 22.7104 51.2448C20.7807 51.2448 19.2165 49.6813 19.2165 47.7524C19.2165 45.8235 20.7807 44.26 22.7104 44.26C24.6401 44.26 26.2042 45.8235 26.2042 47.7524C26.2042 48.7167 26.9864 49.4986 27.9511 49.4986C28.9159 49.4986 29.6981 48.7167 29.6981 47.7524C29.6861 44.5771 27.5332 41.8094 24.4573 41.0155V39.0214C24.4573 38.057 23.6751 37.2751 22.7104 37.2751C21.7456 37.2751 20.9634 38.057 20.9634 39.0214V41.0155C17.2335 41.9751 14.9881 45.7754 15.948 49.5038C16.742 52.5872 19.5251 54.7411 22.7104 54.7372C24.6401 54.7372 26.2042 56.3007 26.2042 58.2296C26.2042 60.1585 24.6401 61.722 22.7104 61.722C20.7807 61.722 19.2165 60.1585 19.2165 58.2296C19.2165 57.2653 18.4343 56.4834 17.4696 56.4834C16.5048 56.4834 15.7227 57.2653 15.7227 58.2296C15.7347 61.4048 17.8875 64.1726 20.9634 64.9664V66.9606C20.9634 67.925 21.7456 68.7068 22.7104 68.7068C23.6751 68.7068 24.4573 67.925 24.4573 66.9606Z" fill="#F8FFFF"/>
<path d="M62.8895 42.5152H87.3465C88.3112 42.5152 89.0934 41.733 89.0934 40.7683C89.0934 39.8035 88.3112 39.0214 87.3465 39.0214H62.8895C61.9248 39.0214 61.1426 39.8035 61.1426 40.7683C61.1426 41.733 61.9248 42.5152 62.8895 42.5152Z" fill="#F8FFFF"/>
<path d="M92.5868 42.5152H96.0806C97.0454 42.5152 97.8276 41.733 97.8276 40.7683C97.8276 39.8035 97.0454 39.0214 96.0806 39.0214H92.5868C91.622 39.0214 90.8398 39.8035 90.8398 40.7683C90.8398 41.733 91.622 42.5152 92.5868 42.5152Z" fill="#F8FFFF"/>
</svg>
