<svg width="101" height="106" viewBox="0 0 101 106" fill="none" xmlns="http://www.w3.org/2000/svg">
<path d="M2.27741 55.6951L18.4033 66.8105V98.7645C18.4033 102.643 21.5489 105.787 25.4291 105.787H74.6095C78.4897 105.787 81.6353 102.643 81.6353 98.7645V66.8105L97.7594 55.6951C99.1861 54.712 100.038 53.0906 100.038 51.3585C100.038 49.6263 99.1861 48.0049 97.7594 47.0218L81.6353 35.9099V7.46732C81.6353 3.5887 78.4897 0.444458 74.6095 0.444458H25.4291C21.5489 0.444458 18.4033 3.5887 18.4033 7.46732V35.9099L2.27741 47.0236C0.851436 48.0068 0 49.6278 0 51.3593C0 53.0909 0.851436 54.7119 2.27741 55.6951ZM81.6353 40.1728L95.7659 49.9153C96.2409 50.243 96.5246 50.7832 96.5246 51.3602C96.5246 51.9372 96.2409 52.4774 95.7659 52.8052L81.6353 62.5459V40.1728ZM63.5281 3.95589L61.2746 6.35771C60.6109 7.06524 59.684 7.46685 58.7137 7.46732H41.3249C40.3542 7.46608 39.4271 7.06463 38.7622 6.35771L36.5105 3.95589H63.5281ZM21.9162 37.7517L22.603 37.2776C23.1883 36.8736 23.472 36.1566 23.3215 35.4616C23.1711 34.7667 22.6162 34.2311 21.9162 34.105V7.46732C21.9162 5.52801 23.489 3.95589 25.4291 3.95589H31.6943L36.1996 8.75953C37.5299 10.1725 39.3838 10.9752 41.3249 10.9788H58.7137C60.655 10.9765 62.5094 10.1735 63.839 8.75953L68.3443 3.95589H74.6095C76.5496 3.95589 78.1224 5.52801 78.1224 7.46732V34.105C77.4223 34.2311 76.8675 34.7667 76.717 35.4616C76.5666 36.1566 76.8503 36.8736 77.4356 37.2776L78.1224 37.7517V64.9652L51.0152 83.6548C50.415 84.0683 49.6218 84.0683 49.0216 83.6548L21.9162 64.9688V37.7517ZM21.9162 69.2334L47.0333 86.5447C48.8372 87.7783 51.2137 87.7783 53.0175 86.5447L78.1224 69.2334V89.9859C78.1224 91.9253 76.5496 93.4974 74.6095 93.4974H25.4291C23.489 93.4974 21.9162 91.9253 21.9162 89.9859V69.2334ZM21.9162 96.0326C22.9795 96.6646 24.1921 97.0015 25.4291 97.0088H74.6095C75.8465 97.0015 77.0591 96.6646 78.1224 96.0326V98.7645C78.1224 100.704 76.5496 102.276 74.6095 102.276H25.4291C23.489 102.276 21.9162 100.704 21.9162 98.7645V96.0326ZM4.27273 49.9153L18.4033 40.1693V62.5476L4.27097 52.8052C3.79589 52.4774 3.51226 51.9372 3.51226 51.3602C3.51226 50.7832 3.79589 50.243 4.27097 49.9153H4.27273Z" fill="#F8FFFF"/>
<path d="M38.4641 25.9708C38.8193 25.9701 39.166 25.8617 39.4583 25.6601L42.8289 23.3355C43.3629 22.9867 43.6657 22.3758 43.6199 21.7399C43.5741 21.1039 43.187 20.5427 42.6086 20.2738C42.0301 20.005 41.3513 20.0707 40.8353 20.4456L37.4665 22.7684C36.8322 23.2044 36.5558 24.0024 36.7846 24.7371C37.0135 25.4718 37.6943 25.9719 38.4641 25.9708Z" fill="#F8FFFF"/>
<path d="M30.724 27.4158L27.3622 29.7404C26.5843 30.2978 26.396 31.3751 26.9388 32.163C27.4816 32.951 28.5555 33.1596 29.354 32.6321L32.7246 30.3075C33.5025 29.7501 33.6908 28.6728 33.148 27.8848C32.6052 27.0969 31.5312 26.8883 30.7328 27.4158H30.724Z" fill="#F8FFFF"/>
<path d="M49.571 18.6898L50.0207 18.3807L50.4703 18.6898C51.2681 19.2113 52.3362 19.0013 52.8772 18.2167C53.4183 17.432 53.2349 16.3591 52.4639 15.7987L51.0166 14.8011C50.4168 14.3882 49.6245 14.3882 49.0248 14.8011L47.5775 15.7987C46.8065 16.3591 46.623 17.432 47.1641 18.2167C47.7051 19.0013 48.7732 19.2113 49.571 18.6898Z" fill="#F8FFFF"/>
<path d="M60.5828 25.66C61.3812 26.1876 62.4552 25.979 62.998 25.191C63.5407 24.403 63.3525 23.3258 62.5746 22.7684L59.204 20.4456C58.6891 20.0423 57.9927 19.9585 57.3967 20.228C56.8008 20.4975 56.404 21.0757 56.3671 21.7285C56.3301 22.3813 56.6592 23.0005 57.2209 23.3355L60.5828 25.66Z" fill="#F8FFFF"/>
<path d="M70.6939 32.6321C71.2107 32.988 71.8782 33.0414 72.445 32.772C73.0118 32.5027 73.3917 31.9515 73.4418 31.3262C73.4918 30.7009 73.2043 30.0964 72.6875 29.7404L69.3169 27.4158C68.5184 26.8883 67.4445 27.0969 66.9017 27.8848C66.3589 28.6728 66.5472 29.7501 67.3251 30.3075L70.6939 32.6321Z" fill="#F8FFFF"/>
<path d="M50.0199 61.8944C50.3491 61.8944 50.6717 61.802 50.9508 61.6276L65.0024 52.849C65.5159 52.5282 65.8279 51.9655 65.8279 51.3601V35.5587C65.8279 34.9534 65.5159 34.3907 65.0024 34.0699L50.9508 25.2913C50.3813 24.9355 49.6586 24.9355 49.089 25.2913L35.0374 34.0699C34.5239 34.3907 34.2119 34.9534 34.2119 35.5587V51.3601C34.2119 51.9655 34.5239 52.5282 35.0374 52.849L49.089 61.6276C49.3681 61.802 49.6907 61.8944 50.0199 61.8944ZM62.315 50.3875L51.7763 56.9784V45.3117L62.315 38.7278V50.3875ZM50.0199 28.8501L60.757 35.5587L50.0199 42.2673L39.2828 35.5587L50.0199 28.8501ZM48.2635 56.9784L37.7248 50.3945V38.7278L48.2635 45.3117V56.9784Z" fill="#F8FFFF"/>
</svg>
