<svg width="109" height="110" viewBox="0 0 109 110" fill="none" xmlns="http://www.w3.org/2000/svg">
<path d="M2.12334e-06 73.2423C-0.00112003 74.8822 0.442559 76.4918 1.28383 77.8998C2.1251 79.3077 3.33249 80.4614 4.77754 81.238C6.22258 82.0145 7.85121 82.385 9.49014 82.31C11.1291 82.2349 12.717 81.7171 14.0849 80.8117L28.7506 95.4712C28.0132 96.5877 27.5318 97.8533 27.3409 99.1774C27.1501 100.502 27.2545 101.851 27.6466 103.131C28.0387 104.41 28.7089 105.586 29.6091 106.576C30.5094 107.566 31.6174 108.345 32.854 108.857C34.0906 109.369 35.425 109.601 36.7618 109.537C38.0987 109.473 39.4048 109.114 40.5868 108.486C41.7687 107.859 42.7973 106.978 43.5987 105.906C44.4002 104.835 44.9548 103.6 45.2228 102.289H63.7501C64.0166 103.601 64.5703 104.839 65.3714 105.912C66.1726 106.985 67.2014 107.868 68.384 108.497C69.5667 109.126 70.8739 109.485 72.2121 109.55C73.5501 109.615 74.886 109.382 76.1237 108.87C77.3614 108.358 78.4704 107.578 79.3712 106.587C80.272 105.596 80.9422 104.417 81.3338 103.137C81.7254 101.856 81.8287 100.505 81.6363 99.1796C81.4438 97.8544 80.9605 96.5882 80.2208 95.4717L88.1212 87.5746L85.5527 85.0071L77.6523 92.9042C76.4135 92.0841 74.9922 91.5805 73.5132 91.4378C72.0342 91.2951 70.5428 91.5176 69.17 92.0858C67.7971 92.654 66.5849 93.5504 65.6397 94.6964C64.6945 95.8423 64.0452 97.2028 63.749 98.6582H45.2228C44.7359 96.2948 43.3298 94.2215 41.3137 92.8942L42.3698 90.2551L38.9972 88.9067L37.9422 91.5433C35.6419 91.1235 33.2684 91.6116 31.3207 92.9049L16.655 78.2453C17.9489 76.2984 18.4371 73.9259 18.0172 71.6265L31.552 66.215L30.203 62.8437L16.6634 68.2555C15.3357 66.2402 13.2615 64.8346 10.8971 64.3478V45.8293C13.2615 45.3425 15.3357 43.9369 16.6634 41.9216L30.2008 47.3345L31.5497 43.9633L18.0147 38.5506C18.4346 36.2513 17.9464 33.8787 16.6525 31.9318L27.9582 20.6308L25.3909 18.0631L14.0851 29.3641C12.9682 28.6269 11.7021 28.1456 10.3774 27.9548C9.05262 27.7639 7.70205 27.8682 6.42234 28.2601C5.14262 28.652 3.96543 29.3219 2.97503 30.2218C1.98463 31.1217 1.20552 32.2294 0.693487 33.4655C0.181453 34.7016 -0.0508433 36.0356 0.0132293 37.3719C0.0773019 38.7083 0.436158 40.0139 1.06411 41.1954C1.69206 42.3769 2.57356 43.405 3.64552 44.2061C4.71748 45.0072 5.95337 45.5615 7.26471 45.8293V64.3489C5.2153 64.7701 3.37377 65.8845 2.05047 67.5045C0.727165 69.1244 0.00299561 71.1509 2.12334e-06 73.2423ZM72.6471 95.0274C73.7247 95.0274 74.7782 95.3468 75.6742 95.9452C76.5702 96.5437 77.2685 97.3943 77.6809 98.3894C78.0933 99.3846 78.2012 100.48 77.991 101.536C77.7807 102.593 77.2618 103.563 76.4998 104.325C75.7378 105.086 74.767 105.605 73.7101 105.815C72.6532 106.025 71.5577 105.918 70.5621 105.505C69.5665 105.093 68.7155 104.395 68.1168 103.499C67.5181 102.604 67.1986 101.551 67.1986 100.474C67.2003 99.0297 67.7749 97.6454 68.7963 96.6244C69.8177 95.6034 71.2026 95.029 72.6471 95.0274ZM36.3236 95.0274C37.4012 95.0274 38.4546 95.3468 39.3506 95.9452C40.2466 96.5437 40.945 97.3943 41.3574 98.3894C41.7697 99.3846 41.8776 100.48 41.6674 101.536C41.4572 102.593 40.9383 103.563 40.1763 104.325C39.4143 105.086 38.4434 105.605 37.3865 105.815C36.3296 106.025 35.2341 105.918 34.2385 105.505C33.2429 105.093 32.392 104.395 31.7933 103.499C31.1946 102.604 30.875 101.551 30.875 100.474C30.8767 99.0297 31.4513 97.6454 32.4727 96.6244C33.4942 95.6034 34.879 95.029 36.3236 95.0274ZM3.63236 36.9337C3.63236 35.8566 3.95191 34.8036 4.5506 33.908C5.14929 33.0123 6.00024 32.3143 6.99583 31.902C7.99142 31.4898 9.08694 31.382 10.1438 31.5921C11.2008 31.8023 12.1716 32.321 12.9336 33.0826C13.6956 33.8443 14.2145 34.8148 14.4247 35.8712C14.635 36.9277 14.5271 38.0228 14.1147 39.0179C13.7023 40.0131 13.0039 40.8637 12.1079 41.4622C11.2119 42.0606 10.1585 42.38 9.08089 42.38C7.63637 42.3783 6.25149 41.804 5.23005 40.783C4.20862 39.762 3.63404 38.3777 3.63236 36.9337ZM9.08089 67.796C10.1585 67.796 11.2119 68.1154 12.1079 68.7138C13.0039 69.3123 13.7023 70.1629 14.1147 71.1581C14.5271 72.1532 14.635 73.2483 14.4247 74.3048C14.2145 75.3612 13.6956 76.3317 12.9336 77.0934C12.1716 77.855 11.2008 78.3737 10.1438 78.5839C9.08694 78.794 7.99142 78.6862 6.99583 78.274C6.00024 77.8617 5.14929 77.1637 4.5506 76.268C3.95191 75.3724 3.63236 74.3194 3.63236 73.2423C3.63404 71.7983 4.20862 70.414 5.23005 69.393C6.25149 68.372 7.63637 67.7977 9.08089 67.796ZM108.971 36.9337C108.972 35.2938 108.528 33.6842 107.687 32.2762C106.846 30.8683 105.638 29.7146 104.193 28.938C102.748 28.1615 101.119 27.791 99.4805 27.8661C97.8416 27.9411 96.2537 28.4589 94.8858 29.3643L80.2201 14.7048C80.958 13.5884 81.4398 12.3227 81.6311 10.9984C81.8223 9.67407 81.7182 8.32386 81.3262 7.04447C80.9342 5.76507 80.2641 4.58814 79.3638 3.59795C78.4635 2.60776 77.3553 1.82881 76.1185 1.31689C74.8818 0.804961 73.5471 0.572726 72.21 0.636811C70.873 0.700896 69.5666 1.05972 68.3845 1.68757C67.2025 2.31543 66.1739 3.1968 65.3725 4.26855C64.5711 5.3403 64.0167 6.57593 63.749 7.88694H45.2228C44.8671 6.13311 44.0012 4.52332 42.7338 3.25947C41.4664 1.99561 39.8538 1.13397 38.0984 0.7826C36.343 0.431232 34.5229 0.605784 32.8663 1.28436C31.2098 1.96294 29.7905 3.11534 28.7866 4.59702C27.7827 6.0787 27.2388 7.82369 27.2232 9.61314C27.2075 11.4026 27.7208 13.1568 28.6986 14.6558C29.6764 16.1548 31.0753 17.3319 32.7197 18.0393C34.3642 18.7467 36.1809 18.9531 37.9422 18.6324L38.9972 21.2691L42.3698 19.9207L41.3126 17.2818C43.3291 15.9547 44.7356 13.8814 45.2228 11.5178H63.7501C64.2371 13.8812 65.6432 15.9545 67.6592 17.2818L65.8766 21.7364L69.2491 23.0848L71.0307 18.6327C73.331 19.0525 75.7045 18.5644 77.6523 17.2711L92.3179 31.9307C91.0241 33.8776 90.5358 36.2501 90.9558 38.5495L77.421 43.961L78.7699 47.3323L92.3073 41.9194C92.9645 42.9176 93.812 43.7768 94.8014 44.4476C95.7908 45.1185 96.9027 45.588 98.0736 45.8293V64.3489C95.7092 64.8358 93.635 66.2414 92.3073 68.2566L86.9427 66.1115L85.5938 69.4827L90.9558 71.6265C90.5358 73.9259 91.0241 76.2984 92.3179 78.2453L88.731 81.8308L91.2995 84.3983L94.8865 80.8128C96.0034 81.5502 97.2696 82.0317 98.5944 82.2226C99.9193 82.4136 101.27 82.3094 102.55 81.9175C103.83 81.5256 105.007 80.8557 105.997 79.9557C106.988 79.0557 107.767 77.9479 108.279 76.7116C108.791 75.4754 109.023 74.1413 108.959 72.8048C108.895 71.4684 108.536 70.1626 107.908 68.9811C107.28 67.7996 106.398 66.7715 105.326 65.9705C104.254 65.1695 103.017 64.6154 101.706 64.3478V45.8293C103.756 45.4081 105.598 44.2934 106.921 42.6729C108.244 41.0525 108.968 39.0255 108.971 36.9337ZM36.3236 15.1486C35.2459 15.1486 34.1925 14.8292 33.2965 14.2308C32.4005 13.6323 31.7022 12.7817 31.2898 11.7866C30.8774 10.7914 30.7695 9.69633 30.9797 8.63985C31.19 7.58338 31.7089 6.61294 32.4709 5.85127C33.2329 5.08959 34.2037 4.57089 35.2606 4.36074C36.3175 4.15059 37.413 4.25845 38.4086 4.67066C39.4042 5.08288 40.2552 5.78094 40.8539 6.67658C41.4525 7.57221 41.7721 8.6252 41.7721 9.70237C41.7704 11.1463 41.1958 12.5306 40.1744 13.5516C39.153 14.5726 37.7681 15.147 36.3236 15.1486ZM72.6471 15.1486C71.5695 15.1486 70.5161 14.8292 69.6201 14.2308C68.7241 13.6323 68.0257 12.7817 67.6133 11.7866C67.201 10.7914 67.093 9.69633 67.3033 8.63985C67.5135 7.58338 68.0324 6.61294 68.7944 5.85127C69.5564 5.08959 70.5273 4.57089 71.5842 4.36074C72.6411 4.15059 73.7366 4.25845 74.7322 4.67066C75.7278 5.08288 76.5787 5.78094 77.1774 6.67658C77.7761 7.57221 78.0957 8.6252 78.0957 9.70237C78.094 11.1463 77.5194 12.5306 76.498 13.5516C75.4765 14.5726 74.0916 15.147 72.6471 15.1486ZM105.338 73.2423C105.338 74.3194 105.019 75.3724 104.42 76.268C103.821 77.1637 102.97 77.8617 101.975 78.274C100.979 78.6862 99.8838 78.794 98.8268 78.5839C97.7699 78.3737 96.7991 77.855 96.0371 77.0934C95.2751 76.3317 94.7562 75.3612 94.546 74.3048C94.3357 73.2483 94.4436 72.1532 94.856 71.1581C95.2684 70.1629 95.9667 69.3123 96.8628 68.7138C97.7588 68.1154 98.8122 67.796 99.8898 67.796C101.334 67.7977 102.719 68.372 103.741 69.393C104.762 70.414 105.337 71.7983 105.338 73.2423ZM99.8898 42.38C98.8122 42.38 97.7588 42.0606 96.8628 41.4622C95.9667 40.8637 95.2684 40.0131 94.856 39.0179C94.4436 38.0228 94.3357 36.9277 94.546 35.8712C94.7562 34.8148 95.2751 33.8443 96.0371 33.0826C96.7991 32.321 97.7699 31.8023 98.8268 31.5921C99.8838 31.382 100.979 31.4898 101.975 31.902C102.97 32.3143 103.821 33.0123 104.42 33.908C105.019 34.8036 105.338 35.8566 105.338 36.9337C105.337 38.3777 104.762 39.762 103.741 40.783C102.719 41.804 101.334 42.3783 99.8898 42.38ZM38.1397 38.7492V80.504C38.1409 81.4666 38.5239 82.3894 39.2049 83.0701C39.8858 83.7508 40.8091 84.1337 41.7721 84.1348H61.7501V87.7657H41.7721C39.846 87.7635 37.9995 86.9977 36.6376 85.6364C35.2756 84.275 34.5096 82.4292 34.5074 80.504V38.7492H38.1397ZM79.9118 82.3194V62.4786C79.9145 61.5246 79.7278 60.5796 79.3625 59.6982C78.9973 58.8169 78.4609 58.0166 77.7842 57.3439L74.4633 54.0246V67.0439L77.5637 70.1431L74.9952 72.7106L71.3629 69.0797L65.2264 62.9459C65.0373 62.7568 64.8128 62.6069 64.5657 62.5046C64.3186 62.4024 64.0538 62.3497 63.7864 62.3497C63.519 62.3498 63.2542 62.4024 63.0071 62.5047C62.76 62.6071 62.5355 62.757 62.3464 62.9461C62.1574 63.1351 62.0074 63.3595 61.905 63.6065C61.8027 63.8535 61.7501 64.1182 61.7501 64.3855C61.7501 64.6528 61.8028 64.9175 61.9052 65.1645C62.0075 65.4115 62.1575 65.6359 62.3467 65.8249L68.4829 71.9585C68.7798 72.2553 68.9647 72.6457 69.0061 73.0634C69.0475 73.481 68.9428 73.9001 68.7099 74.2494C67.7862 75.6384 67.2452 77.2464 67.1416 78.9112C67.038 80.5759 67.3753 82.2385 68.1196 83.7313L68.8234 85.1383C68.9494 85.3904 69.0149 85.6684 69.0148 85.9502V87.7657H65.3824V86.3789L64.8702 85.355C63.9544 83.518 63.4822 81.4918 63.4916 79.4393C63.5011 77.3868 63.9918 75.3652 64.9245 73.5366L59.7779 68.3921C58.7224 67.3278 58.1316 65.8889 58.1348 64.3903C58.1381 62.8916 58.7352 61.4553 59.7953 60.3956C60.8555 59.3359 62.2925 58.7392 63.7918 58.736C65.291 58.7328 66.7305 59.3234 67.7952 60.3786L70.8309 63.4131V31.4875C70.8298 30.5249 70.4467 29.602 69.7658 28.9213C69.0848 28.2407 68.1616 27.8578 67.1986 27.8566H62.8725L61.5582 30.484C61.4074 30.7855 61.1755 31.0391 60.8886 31.2163C60.6017 31.3936 60.2711 31.4875 59.9339 31.4875H49.0368C48.6996 31.4875 48.3689 31.3936 48.0821 31.2163C47.7952 31.0391 47.5633 30.7855 47.4125 30.484L46.0982 27.8566H41.7721C40.8091 27.8578 39.8858 28.2407 39.2049 28.9213C38.5239 29.602 38.1409 30.5249 38.1397 31.4875V35.1183H34.5074V31.4875C34.5096 29.5622 35.2756 27.7164 36.6376 26.3551C37.9995 24.9937 39.846 24.2279 41.7721 24.2258H67.1986C69.1246 24.2279 70.9712 24.9937 72.3331 26.3551C73.6951 27.7164 74.4611 29.5622 74.4633 31.4875V48.8897L80.3525 54.7764C81.3675 55.7855 82.1723 56.9859 82.7201 58.3079C83.268 59.63 83.5481 61.0476 83.5442 62.4786V82.3194H79.9118ZM50.853 76.8731H58.1177V80.504H50.853V76.8731ZM58.6496 54.5563C57.5443 53.4539 56.0467 52.8348 54.4853 52.8348C52.924 52.8348 51.4263 53.4539 50.3211 54.5563L47.7525 51.9888C49.5396 50.2066 51.9609 49.2057 54.4853 49.2057C57.0098 49.2057 59.4311 50.2066 61.2181 51.9888L58.6496 54.5563ZM64.0981 49.991C62.8358 48.7291 61.3371 47.7282 59.6878 47.0453C58.0384 46.3624 56.2706 46.0109 54.4853 46.0109C52.7001 46.0109 50.9323 46.3624 49.2829 47.0453C47.6336 47.7282 46.1349 48.7291 44.8725 49.991L42.304 47.4237C45.5372 44.1991 49.918 42.3882 54.4853 42.3882C59.0527 42.3882 63.4335 44.1991 66.6667 47.4237L64.0981 49.991ZM56.3015 60.5343V64.1651H52.6692V60.5343H56.3015ZM45.4045 60.5343H49.0368V64.1651H45.4045V60.5343Z" fill="#F8FFFF"/>
</svg>
