<svg width="109" height="109" viewBox="0 0 109 109" fill="none" xmlns="http://www.w3.org/2000/svg">
<path d="M108.223 56.4374C108.223 44.7664 99.9873 34.9937 89.0219 32.5894V9.32766C89.0219 4.51723 85.1067 0.603638 80.2943 0.603638H34.9105C30.0981 0.603638 26.1829 4.51723 26.1829 9.32766V28.5205H16.092L15.0395 32.736L11.3145 30.5009L1.97943 39.8268L4.21545 43.5537L0 44.6059V57.8001L4.21719 58.8522L1.97943 62.5791L11.3128 71.9068L15.0377 69.6717L16.092 73.8854H26.1829V100.057C26.1829 104.868 30.0981 108.781 34.9105 108.781H80.2943C85.1067 108.781 89.0219 104.868 89.0219 100.057V80.2853C99.9873 77.881 108.223 68.1084 108.223 56.4374ZM104.732 56.4374C104.732 59.838 103.899 63.0415 102.454 65.8837C101.485 63.2194 99.2559 61.1239 96.3758 60.4033L89.0219 58.5643V58.1473C91.1968 56.5089 92.513 53.9318 92.513 51.2047V47.7151C92.513 45.2776 91.4813 42.9326 89.6817 41.282C87.8838 39.6366 85.4471 38.8096 83.0103 39.0242C78.5505 39.4098 75.0577 43.388 75.0577 48.0745V51.203C75.0577 53.9301 76.3738 56.5072 78.5487 58.1455V58.5625L71.1948 60.4016C68.3147 61.1222 66.0857 63.2177 65.1169 65.882C63.6716 63.0414 62.839 59.838 62.839 56.4374C62.839 44.892 72.2352 35.4997 83.7853 35.4997C95.3355 35.4997 104.732 44.892 104.732 56.4374ZM78.5487 32.5894C77.3478 32.8529 76.1853 33.2158 75.0577 33.6485V33.5205C75.0577 30.7591 72.8191 28.5205 70.0577 28.5205H45.1471C42.3857 28.5205 40.1471 30.7591 40.1471 33.5205V47.9478C40.1471 50.7092 42.3857 52.9478 45.1471 52.9478H59.6272C59.4614 54.0906 59.3479 55.2492 59.3479 56.4374C59.3479 68.1084 67.5833 77.881 78.5487 80.2853C78.5487 82.5325 76.727 84.3542 74.4799 84.3542H41.6561C38.8946 84.3542 36.6561 82.1157 36.6561 79.3542V30.0309C36.6561 27.2695 38.8947 25.0309 41.6561 25.0309H73.5487C76.3102 25.0309 78.5487 27.2695 78.5487 30.0309V32.5894ZM60.3778 49.4581H48.6382C45.8768 49.4581 43.6382 47.2196 43.6382 44.4582V37.0101C43.6382 34.2487 45.8768 32.0101 48.6382 32.0101H68.262C70.0871 32.0101 71.5666 33.4897 71.5666 35.3148C66.2358 38.4083 62.1757 43.4438 60.3778 49.4581ZM34.9105 4.09325H80.2943C83.1814 4.09325 85.5308 6.44175 85.5308 9.32766V14.5621H29.674V9.32766C29.674 6.44175 32.0234 4.09325 34.9105 4.09325ZM26.1829 59.1802C25.0815 59.6653 23.8928 59.927 22.6919 59.927C17.8794 59.927 13.9642 56.0134 13.9642 51.203C13.9642 46.3925 17.8794 42.4789 22.6919 42.4789C23.8928 42.4789 25.0815 42.7407 26.1829 43.2257V59.1802ZM18.8185 70.3958L17.9685 66.9952L17.6141 66.0617L15.6207 65.2521L11.8539 67.5134L6.37641 62.0364L8.63862 58.2694L7.76585 56.1408L3.49106 55.0747V47.3312L7.76062 46.2652L8.63862 44.1365L6.37641 40.3695L11.8539 34.8925L15.6207 37.1538L17.7503 36.2884L18.8185 32.0101H26.1829V39.5215C25.0501 39.1813 23.8771 38.9893 22.6919 38.9893C15.9541 38.9893 10.4732 44.4698 10.4732 51.203C10.4732 57.9362 15.9541 63.4166 22.6919 63.4166C23.8771 63.4166 25.0501 63.2247 26.1829 62.8844V70.3958H18.8185ZM80.2943 105.292H34.9105C32.0234 105.292 29.674 102.943 29.674 100.057V99.8231C29.674 97.0616 31.9125 94.8231 34.674 94.8231H85.5308V100.057C85.5308 102.943 83.1814 105.292 80.2943 105.292ZM85.5308 86.3334C85.5308 89.0949 83.2923 91.3335 80.5308 91.3335H34.674C31.9125 91.3335 29.674 89.0949 29.674 86.3335V18.0517H85.5308V32.0991C84.9513 32.0572 84.3753 32.0101 83.7853 32.0101C83.1953 32.0101 82.6193 32.0572 82.0398 32.0991V26.5413C82.0398 23.7799 79.8012 21.5413 77.0398 21.5413H38.165C35.4036 21.5413 33.165 23.7799 33.165 26.5413V82.8438C33.165 85.6053 35.4036 87.8438 38.165 87.8438H77.0398C79.8012 87.8438 82.0398 85.6053 82.0398 82.8438V80.7756C82.6193 80.8175 83.1953 80.8646 83.7853 80.8646C84.3753 80.8646 84.9513 80.8175 85.5308 80.7756V86.3334ZM83.7853 77.375C77.5276 77.375 71.9175 74.6025 68.0756 70.2405V68.8656C68.0756 66.4595 69.7076 64.371 72.0414 63.7865L79.2025 61.9982C80.8699 61.5818 82.0398 60.0838 82.0398 58.3652V57.214C82.0398 56.5928 81.7093 56.0185 81.1723 55.7063C79.5297 54.7501 78.5487 53.0664 78.5487 51.203V48.0745C78.5487 45.1799 80.6416 42.7319 83.3123 42.4999C84.8099 42.3795 86.2291 42.8506 87.3235 43.8538C88.4022 44.8431 89.0219 46.2495 89.0219 47.7133V51.203C89.0219 53.0664 88.0409 54.7501 86.3984 55.7063C85.8613 56.0185 85.5308 56.5928 85.5308 57.214V58.3652C85.5308 60.0838 86.7008 61.5818 88.3682 61.9982L95.5292 63.7865C97.863 64.371 99.4951 66.4595 99.4951 68.8656V70.2405C95.6532 74.6025 90.043 77.375 83.7853 77.375Z" fill="#F8FFFF"/>
<path d="M64.585 9.32841C64.585 8.36438 65.3665 7.58289 66.3305 7.58289C67.2945 7.58289 68.076 8.36438 68.076 9.32841C68.076 10.2924 67.2945 11.0739 66.3305 11.0739C65.3665 11.0739 64.585 10.2924 64.585 9.32841Z" fill="#F8FFFF"/>
<path d="M47.1289 9.32841C47.1289 8.36438 47.9104 7.58289 48.8744 7.58289H59.3476C60.3116 7.58289 61.0931 8.36438 61.0931 9.32841C61.0931 10.2924 60.3116 11.0739 59.3476 11.0739H48.8744C47.9104 11.0739 47.1289 10.2924 47.1289 9.32841Z" fill="#F8FFFF"/>
<path d="M50.6201 100.058C50.6201 99.0941 51.4016 98.3126 52.3656 98.3126H62.8388C63.8028 98.3126 64.5843 99.0941 64.5843 100.058C64.5843 101.022 63.8028 101.804 62.8388 101.804H52.3656C51.4016 101.804 50.6201 101.022 50.6201 100.058Z" fill="#F8FFFF"/>
<path d="M75.0576 100.058C75.0576 99.0941 75.8391 98.3126 76.8031 98.3126C77.7672 98.3126 78.5487 99.0941 78.5487 100.058C78.5487 101.022 77.7672 101.804 76.8031 101.804C75.8391 101.804 75.0576 101.022 75.0576 100.058Z" fill="#F8FFFF"/>
<path d="M36.6562 100.058C36.6562 99.0941 37.4377 98.3126 38.4018 98.3126C39.3658 98.3126 40.1473 99.0941 40.1473 100.058C40.1473 101.022 39.3658 101.804 38.4018 101.804C37.4377 101.804 36.6562 101.022 36.6562 100.058Z" fill="#F8FFFF"/>
<path d="M40.1475 58.1829C40.1475 57.2189 40.929 56.4374 41.893 56.4374H54.1117C55.0757 56.4374 55.8572 57.2189 55.8572 58.1829C55.8572 59.1469 55.0757 59.9284 54.1117 59.9284H41.893C40.929 59.9284 40.1475 59.1469 40.1475 58.1829Z" fill="#F8FFFF"/>
<path d="M40.1475 65.1622C40.1475 64.1981 40.929 63.4166 41.893 63.4166H54.1117C55.0757 63.4166 55.8572 64.1981 55.8572 65.1622C55.8572 66.1262 55.0757 66.9077 54.1117 66.9077H41.893C40.929 66.9077 40.1475 66.1262 40.1475 65.1622Z" fill="#F8FFFF"/>
<path d="M40.1475 72.1413C40.1475 71.1773 40.929 70.3958 41.893 70.3958H54.1117C55.0757 70.3958 55.8572 71.1773 55.8572 72.1413C55.8572 73.1053 55.0757 73.8868 54.1117 73.8868H41.893C40.929 73.8868 40.1475 73.1053 40.1475 72.1413Z" fill="#F8FFFF"/>
<path d="M40.1475 79.1205C40.1475 78.1565 40.929 77.375 41.893 77.375H54.1117C55.0757 77.375 55.8572 78.1565 55.8572 79.1205C55.8572 80.0846 55.0757 80.8661 54.1117 80.8661H41.893C40.929 80.8661 40.1475 80.0846 40.1475 79.1205Z" fill="#F8FFFF"/>
<path d="M97.7493 32.0101C100.636 32.0101 102.986 29.6616 102.986 26.7757C102.986 25.7649 102.696 24.8239 102.196 24.027C101.071 22.2366 99.4948 20.4506 99.4948 18.3364V9.32841C99.4948 8.36438 98.7133 7.58289 97.7493 7.58289C96.7852 7.58289 96.0037 8.36438 96.0037 9.32841V18.3364C96.0037 20.4506 94.4273 22.2366 93.303 24.027C92.8026 24.8239 92.5127 25.7649 92.5127 26.7757C92.5127 29.6616 94.8622 32.0101 97.7493 32.0101ZM97.7493 25.0309C98.7111 25.0309 99.4948 25.8126 99.4948 26.7757C99.4948 27.7389 98.7111 28.5205 97.7493 28.5205C96.7875 28.5205 96.0037 27.7389 96.0037 26.7757C96.0037 25.8126 96.7875 25.0309 97.7493 25.0309Z" fill="#F8FFFF"/>
<path d="M96.0039 2.34917C96.0039 1.38514 96.7854 0.603638 97.7494 0.603638C98.7135 0.603638 99.495 1.38514 99.495 2.34917C99.495 3.31319 98.7135 4.09469 97.7494 4.09469C96.7854 4.09469 96.0039 3.31319 96.0039 2.34917Z" fill="#F8FFFF"/>
<path d="M17.4553 77.375C14.5682 77.375 12.2188 79.7235 12.2188 82.6094C12.2188 83.6202 12.5087 84.5612 13.0091 85.3581C14.1334 87.1486 15.7098 88.9345 15.7098 91.0487V100.057C15.7098 101.021 16.4913 101.802 17.4553 101.802C18.4194 101.802 19.2009 101.021 19.2009 100.057V91.0487C19.2009 88.9345 20.7773 87.1486 21.9016 85.3581C22.402 84.5612 22.6919 83.6202 22.6919 82.6094C22.6919 79.7235 20.3424 77.375 17.4553 77.375ZM17.4553 84.3542C16.4935 84.3542 15.7098 83.5725 15.7098 82.6094C15.7098 81.6463 16.4935 80.8646 17.4553 80.8646C18.4171 80.8646 19.2009 81.6463 19.2009 82.6094C19.2009 83.5725 18.4171 84.3542 17.4553 84.3542Z" fill="#F8FFFF"/>
<path d="M15.71 107.037C15.71 106.073 16.4915 105.292 17.4555 105.292C18.4195 105.292 19.201 106.073 19.201 107.037C19.201 108.001 18.4195 108.783 17.4555 108.783C16.4915 108.783 15.71 108.001 15.71 107.037Z" fill="#F8FFFF"/>
</svg>
