<svg width="109" height="102" viewBox="0 0 109 102" fill="none" xmlns="http://www.w3.org/2000/svg">
<path d="M102.985 101.803H92.512C91.1236 101.802 89.7926 101.25 88.8109 100.268C87.8292 99.287 87.277 97.9565 87.2754 96.5687V73.8863C87.277 72.4985 87.8292 71.168 88.8109 70.1867C89.7926 69.2054 91.1236 68.6534 92.512 68.6519H102.985C104.373 68.6534 105.705 69.2054 106.686 70.1867C107.668 71.168 108.22 72.4985 108.222 73.8863V96.5687C108.22 97.9565 107.668 99.287 106.686 100.268C105.705 101.25 104.373 101.802 102.985 101.803ZM92.512 72.1415C92.0492 72.142 91.6055 72.326 91.2783 72.6531C90.951 72.9802 90.767 73.4237 90.7664 73.8863V96.5687C90.767 97.0313 90.951 97.4748 91.2783 97.8019C91.6055 98.129 92.0492 98.313 92.512 98.3135H102.985C103.448 98.313 103.892 98.129 104.219 97.8019C104.546 97.4748 104.73 97.0313 104.731 96.5687V73.8863C104.73 73.4237 104.546 72.9802 104.219 72.6531C103.892 72.326 103.448 72.142 102.985 72.1415H92.512Z" fill="#F8FFFF"/>
<path d="M97.7485 96.5702C98.7125 96.5702 99.494 95.7887 99.494 94.8246C99.494 93.8606 98.7125 93.0791 97.7485 93.0791C96.7844 93.0791 96.0029 93.8606 96.0029 94.8246C96.0029 95.7887 96.7844 96.5702 97.7485 96.5702Z" fill="#F8FFFF"/>
<path d="M96.0029 75.6318C96.0029 76.5958 96.7844 77.3773 97.7485 77.3773C98.7125 77.3773 99.494 76.5958 99.494 75.6318C99.494 74.6677 98.7125 73.8862 97.7485 73.8862C96.7844 73.8862 96.0029 74.6677 96.0029 75.6318Z" fill="#F8FFFF"/>
<path d="M3.48972 70.3966H3.48535L7.97792 91.3342L3.48972 70.3966ZM7.97792 91.3342V91.3604C8.15464 91.343 8.33355 91.3342 8.51465 91.3342H7.97792ZM3.48972 70.3966H3.48535L7.97792 91.3342L3.48972 70.3966ZM7.97792 91.3342V91.3604C8.15464 91.343 8.33355 91.3342 8.51465 91.3342H7.97792Z" fill="#F8FFFF"/>
<path d="M61.5398 91.3344H40.1811C40.1809 91.0887 40.1546 90.8438 40.1026 90.6037L35.6122 69.6661C35.4419 68.8869 35.0111 68.189 34.3908 67.6874C33.7704 67.1859 32.9976 66.9106 32.1997 66.9071H3.49013C2.96967 66.9071 2.45579 67.0234 1.98613 67.2476C1.51647 67.4718 1.10292 67.7981 0.775749 68.2027C0.448583 68.6074 0.216091 69.08 0.0952972 69.586C-0.0254968 70.0921 -0.0315339 70.6187 0.0776276 71.1274L4.5658 92.065C4.62367 92.3354 4.71453 92.5976 4.83636 92.8458C4.09721 93.575 3.59171 94.5074 3.38414 95.5245C3.17657 96.5415 3.27632 97.5974 3.67069 98.5576C4.06507 99.5179 4.73625 100.339 5.59888 100.917C6.46151 101.495 7.4766 101.804 8.51507 101.803H61.5398C62.9287 101.803 64.2606 101.252 65.2427 100.27C66.2247 99.2884 66.7764 97.957 66.7764 96.5688C66.7764 95.1805 66.2247 93.8491 65.2427 92.8675C64.2606 91.8858 62.9287 91.3344 61.5398 91.3344H61.5398ZM32.1997 70.3967L36.6879 91.3344H14.4106L9.91804 70.3967H32.1997H32.1997ZM3.48577 70.3967H6.42916C6.42928 70.6424 6.45562 70.8873 6.50774 71.1274L10.8388 91.3344H8.51507C8.33395 91.3344 8.15504 91.3431 7.97832 91.3606V91.3344L3.48577 70.3967ZM35.3569 98.3136H8.51507C8.05213 98.3136 7.60815 98.1298 7.2808 97.8025C6.95345 97.4753 6.76954 97.0315 6.76954 96.5688C6.76954 96.106 6.95345 95.6622 7.2808 95.335C7.60815 95.0078 8.05213 94.824 8.51507 94.824H35.3569C35.8199 94.824 36.2638 95.0078 36.5912 95.335C36.9185 95.6622 37.1024 96.106 37.1024 96.5688C37.1024 97.0315 36.9185 97.4753 36.5912 97.8025C36.2638 98.1298 35.8199 98.3136 35.3569 98.3136H35.3569ZM61.5398 98.3136H40.2924C40.6939 97.185 40.6939 95.9526 40.2924 94.824H61.5398C62.0028 94.824 62.4468 95.0078 62.7741 95.335C63.1015 95.6622 63.2854 96.106 63.2854 96.5688C63.2854 97.0315 63.1015 97.4753 62.7741 97.8025C62.4468 98.1298 62.0028 98.3136 61.5398 98.3136Z" fill="#F8FFFF"/>
<path d="M79.421 89.5895C77.0109 89.5895 75.0572 91.5432 75.0572 93.9533V94.4116C75.0543 95.2605 75.2895 96.0933 75.7361 96.8153C76.1827 97.5374 76.8228 98.1199 77.5839 98.4967C77.9358 98.6725 78.218 98.9619 78.3847 99.3181C78.5515 99.6742 78.593 100.076 78.5026 100.459C78.4122 100.842 78.1951 101.183 77.8866 101.427C77.578 101.671 77.1961 101.803 76.8027 101.803H71.5654C70.6018 101.803 69.8206 101.022 69.8206 100.058V99.3329C69.8206 98.7699 70.277 98.3135 70.84 98.3135C71.6157 98.3135 72.1218 97.4683 71.9005 96.7248C71.678 95.977 71.5645 95.1979 71.5661 94.4116C71.5661 91.7484 69.4072 89.5895 66.744 89.5895H45.3825C44.4189 89.5895 43.6377 88.8083 43.6377 87.8447C43.6377 86.881 44.4189 86.0999 45.3825 86.0999H82.04C83.0037 86.0999 83.7848 86.881 83.7848 87.8447C83.7848 88.8083 83.0037 89.5895 82.04 89.5895H79.421Z" fill="#F8FFFF"/>
<path d="M99.4941 63.4167C99.4941 64.3807 98.7126 65.1622 97.7486 65.1622C96.7845 65.1622 96.003 64.3807 96.003 63.4167V48.1504C96.0024 47.5721 95.7723 47.0178 95.3633 46.6089C94.9542 46.2 94.3996 45.97 93.8211 45.9693H41.8917C40.5034 45.9709 39.1723 46.5229 38.1906 47.5042C37.2089 48.4855 36.6567 49.816 36.6551 51.2038V61.6719C36.6551 62.6359 35.8736 63.4174 34.9096 63.4174C33.9456 63.4174 33.1641 62.6359 33.1641 61.6719V51.2038C33.1667 48.8908 34.0871 46.6733 35.7232 45.0378C37.3594 43.4023 39.5778 42.4824 41.8917 42.4797H93.8211C95.3252 42.4814 96.7672 43.0794 97.8307 44.1425C98.8942 45.2056 99.4924 46.6469 99.4941 48.1504V63.4167Z" fill="#F8FFFF"/>
<path d="M82.0387 79.1207H43.6371C42.6731 79.1207 41.8916 79.9022 41.8916 80.8663C41.8916 81.8303 42.6731 82.6118 43.6371 82.6118H82.0387C83.0028 82.6118 83.7843 81.8303 83.7843 80.8663C83.7843 79.9022 83.0028 79.1207 82.0387 79.1207Z" fill="#F8FFFF"/>
<path d="M19.1996 28.5214C19.1993 29.2777 19.234 30.0334 19.3035 30.7862C19.3542 31.3361 18.9719 31.8391 18.4245 31.9122L16.9455 32.1098C16.3984 32.1829 15.8937 31.799 15.8403 31.2496C15.8383 31.2287 15.8363 31.2078 15.8343 31.1869C15.7667 30.4742 15.016 30.0251 14.411 30.4079C12.5083 31.612 10.9665 33.3243 9.96873 35.3641C8.74899 37.8577 8.41504 40.6921 9.02186 43.4007C9.62868 46.1093 11.1401 48.5307 13.3073 50.2661C15.4745 52.0016 18.1683 52.9477 20.9451 52.9486H27.928C28.8916 52.9486 29.6728 53.7298 29.6728 54.6934C29.6728 55.657 28.8916 56.4382 27.928 56.4382H20.9451C17.2277 56.4376 13.6309 55.1196 10.794 52.7183C7.95707 50.3171 6.06377 46.9881 5.4506 43.3232C4.83743 39.6582 5.54411 35.8946 7.44503 32.7013C9.23608 29.6926 11.978 27.3738 15.2289 26.1041C15.594 25.9615 15.8554 25.6317 15.9019 25.2426C16.6987 18.5742 19.8725 12.4069 24.8535 7.87849C29.7459 3.43052 36.0484 0.867004 42.6359 0.623568C43.1882 0.603155 43.637 1.05292 43.637 1.60566V3.0952C43.637 3.64705 43.1896 4.09246 42.6382 4.11556C36.5224 4.37185 30.7104 6.91292 26.365 11.2565C21.7836 15.836 19.2067 22.045 19.1996 28.5214Z" fill="#F8FFFF"/>
<path d="M99.0567 37.0554C99.2835 37.9935 98.5951 38.8712 97.6374 38.9906C96.6826 39.1097 95.8238 38.4279 95.5683 37.5002C94.94 35.2195 93.659 33.1567 91.8651 31.5759C89.6331 29.609 86.7603 28.523 83.7848 28.5214C83.2726 28.5223 82.761 28.5558 82.2531 28.6217C82.0055 28.6526 81.7541 28.6301 81.516 28.5557C81.2778 28.4813 81.0583 28.3566 80.8724 28.1903C80.6865 28.0239 80.5385 27.8195 80.4383 27.5911C80.3381 27.3626 80.2881 27.1154 80.2916 26.866L80.2938 26.7787C80.2948 25.4994 79.9439 24.2444 79.2794 23.151C78.6148 22.0576 77.6622 21.1679 76.5258 20.5794C75.3894 19.9908 74.1129 19.726 72.836 19.8138C71.5591 19.9017 70.331 20.3389 69.286 21.0776C69.0664 21.2328 68.8139 21.3352 68.5481 21.3768C68.2824 21.4184 68.0107 21.3981 67.7541 21.3174C67.4975 21.2368 67.263 21.098 67.0689 20.9119C66.8748 20.7258 66.7263 20.4974 66.635 20.2445C64.9223 15.5193 61.797 11.4351 57.683 8.54599C53.569 5.65686 48.6655 4.10261 43.6377 4.0941V0.604492C49.0353 0.614293 54.3151 2.18239 58.8424 5.12024C63.3696 8.05809 66.9515 12.2406 69.1573 17.1648C70.6148 16.5361 72.1962 16.2467 73.7821 16.3184C75.3679 16.3902 76.9167 16.8211 78.3115 17.5788C79.7063 18.3366 80.9106 19.4012 81.8334 20.6923C82.7563 21.9834 83.3736 23.4672 83.6387 25.0317H83.7848C87.6109 25.0346 91.3046 26.4318 94.174 28.9616C96.6041 31.104 98.3018 33.9343 99.0567 37.0554Z" fill="#F8FFFF"/>
</svg>
