<svg width="107" height="114" viewBox="0 0 107 114" fill="none" xmlns="http://www.w3.org/2000/svg">
<path d="M106.277 28.0264C106.277 22.917 102.148 18.7607 97.0725 18.7607C94.4666 18.7607 92.1116 19.8586 90.4355 21.6166L54.5164 0.740317C53.8384 0.34649 53.0038 0.34649 52.3258 0.740317L16.4058 21.6166C14.7297 19.8586 12.3755 18.7607 9.7697 18.7607C4.69417 18.7607 0.56543 22.917 0.56543 28.0264C0.56543 32.3749 3.55733 36.0314 7.57821 37.0241V78.762C7.57821 79.5497 7.99596 80.2779 8.67395 80.6726L44.5819 101.543C44.3439 102.365 44.2138 103.234 44.2138 104.132C44.2138 109.241 48.3425 113.398 53.4181 113.398C58.4928 113.398 62.6215 109.241 62.6215 104.132C62.6215 103.234 62.4922 102.368 62.2543 101.545L98.1682 80.6726C98.8462 80.2787 99.2639 79.5497 99.2639 78.762V37.0241C103.285 36.0314 106.277 32.3749 106.277 28.0264ZM4.94842 28.0264C4.94842 25.3498 7.1108 23.1729 9.7697 23.1729C12.4277 23.1729 14.5901 25.3498 14.5901 28.0264C14.5901 30.7022 12.4277 32.8799 9.7697 32.8799C7.1108 32.8799 4.94842 30.7022 4.94842 28.0264ZM53.4181 108.986C50.7592 108.986 48.5968 106.809 48.5968 104.132C48.5968 101.457 50.7592 99.2789 53.4181 99.2789C56.0761 99.2789 58.2394 101.457 58.2394 104.132C58.2394 106.809 56.0761 108.986 53.4181 108.986ZM60.0593 97.7269C58.3823 95.9663 56.0265 94.8667 53.4181 94.8667C50.8114 94.8667 48.4555 95.9655 46.7794 97.7243L11.9612 77.4883V37.0241C15.9812 36.0314 18.9731 32.3749 18.9731 28.0264C18.9731 27.1267 18.843 26.2572 18.6042 25.4334L53.4207 5.19823L88.238 25.4334C87.9992 26.2572 87.869 27.1259 87.869 28.0264C87.869 32.3749 90.8609 36.0314 94.881 37.0241V77.4883L60.0593 97.7269ZM97.0725 32.8799C94.4144 32.8799 92.2512 30.7022 92.2512 28.0264C92.2512 25.3498 94.4144 23.1729 97.0725 23.1729C99.7314 23.1729 101.894 25.3498 101.894 28.0264C101.894 30.7022 99.7314 32.8799 97.0725 32.8799Z" fill="#F8FFFF"/>
<path d="M83.4436 34.6681L54.5159 17.8559C53.8379 17.4621 53.0032 17.4621 52.3252 17.8559L23.3975 34.6681C22.7195 35.0628 22.3018 35.791 22.3018 36.5786V70.2039C22.3018 70.9916 22.7195 71.7206 23.3975 72.1144L52.3252 88.9275C52.6642 89.124 53.0417 89.2231 53.4201 89.2231C53.7993 89.2231 54.1769 89.124 54.5159 88.9275L83.4436 72.1144C84.1216 71.7206 84.5393 70.9916 84.5393 70.2039V36.5786C84.5393 35.791 84.1216 35.0628 83.4436 34.6681ZM53.4201 22.3138L77.9648 36.5786L53.4201 50.8443L28.8762 36.5786L53.4201 22.3138ZM55.6116 83.1959V73.2468C55.6116 72.0283 54.6306 71.0407 53.4201 71.0407C52.2105 71.0407 51.2295 72.0283 51.2295 73.2468V83.1959L26.6847 68.9302V40.3997L52.3252 55.3022C52.6642 55.4987 53.0417 55.5978 53.4201 55.5978C53.7993 55.5978 54.1769 55.4987 54.5159 55.3022L80.1563 40.3997V68.9302L55.6116 83.1959Z" fill="#F8FFFF"/>
<path d="M53.4187 61.113C52.84 61.113 52.2767 61.3484 51.8666 61.7596C51.4592 62.17 51.2246 62.739 51.2246 63.3201C51.2246 63.9003 51.4592 64.4693 51.8666 64.8797C52.2767 65.2909 52.84 65.5271 53.4187 65.5271C53.9948 65.5271 54.5606 65.2909 54.9681 64.8797C55.3756 64.4693 55.6102 63.9003 55.6102 63.3201C55.6102 62.739 55.3756 62.17 54.9681 61.7596C54.5606 61.3484 53.9948 61.113 53.4187 61.113Z" fill="#F8FFFF"/>
</svg>
