<svg width="105" height="92" viewBox="0 0 105 92" fill="none" xmlns="http://www.w3.org/2000/svg">
<path d="M102.249 67.9995C102.248 67.9979 102.247 67.9965 102.246 67.9949C98.7481 60.8545 89.8861 57.3899 82.4758 60.151V47.7337H88.9112C92.7397 47.7337 95.8546 44.6203 95.8546 40.7932V28.8807C95.8546 26.9124 92.8087 26.9124 92.8087 28.8807V40.7932C92.8087 42.9415 91.0604 44.6891 88.9112 44.6891H75.8566C75.5291 44.6891 75.2101 44.7948 74.9471 44.9903L68.489 49.7956V46.2114C68.489 45.3707 67.8073 44.6891 66.966 44.6891H60.5426C58.3934 44.6891 56.6449 42.9415 56.6449 40.7932V22.0065C56.6451 21.9959 56.6451 21.9856 56.6449 21.975V7.59353C56.6449 5.44523 58.3934 3.6976 60.5426 3.6976H88.911C91.0602 3.6976 92.8085 5.44523 92.8085 7.59353V20.7677C92.8085 22.736 95.8544 22.736 95.8544 20.7677V7.59353C95.8544 3.76641 92.7395 0.652954 88.911 0.652954H60.5428C56.7141 0.652954 53.5992 3.76641 53.5992 7.59353V20.4683H8.83222C3.98029 20.4683 0.0332031 24.4138 0.0332031 29.2637V68.9208C0.0332031 73.118 3.44909 76.5324 7.64797 76.5324H11.2015C13.1706 76.5324 13.1706 73.4878 11.2015 73.4878H7.64797C5.12881 73.4878 3.07911 71.4392 3.07911 68.9208V63.7384H76.7158C74.0961 66.27 72.3311 69.6798 71.901 73.4878H19.779C17.8099 73.4878 17.8099 76.5324 19.779 76.5324H32.381L29.5832 88.3548H24.1974C23.3561 88.3548 22.6745 89.0364 22.6745 89.8771C22.6745 90.7179 23.3561 91.3995 24.1974 91.3995H58.3116C59.1529 91.3995 59.8345 90.7179 59.8345 89.8771C59.8345 89.0364 59.1529 88.3548 58.3116 88.3548H52.9258L50.128 76.5324H71.8442C72.0023 78.6598 72.5744 80.6998 73.5501 82.6116C76.3174 88.0323 81.8157 91.3995 87.8993 91.3995C99.7441 91.5468 107.758 78.4656 102.249 67.9995ZM82.2049 78.2031C82.2043 78.2019 82.2035 78.2005 82.2029 78.1993C80.0182 74.0444 83.2021 68.8595 87.8995 68.9176C90.3129 68.9176 92.495 70.255 93.5944 72.4082C95.7832 76.5637 92.599 81.7518 87.8995 81.6937C85.4862 81.6937 83.3041 80.3561 82.2049 78.2031ZM98.7649 68.0661L95.5078 69.7242C94.0452 67.7249 91.8659 66.3895 89.4225 65.9945V62.3436C93.2358 62.7849 96.6376 64.8686 98.7649 68.0661ZM3.07911 29.2637C3.07911 26.0926 5.66001 23.513 8.83222 23.513H53.5992V40.7932C53.5992 44.6203 56.7141 47.7337 60.5428 47.7337H65.4433V52.8264C65.4433 54.052 66.8805 54.788 67.8757 54.0475L76.3614 47.7337H79.4299V60.6938H3.07911V29.2637ZM86.3766 62.3446V65.9957C80.8692 66.7809 77.0894 72.8001 78.908 78.1745L75.6639 79.8259L75.6503 79.8328C72.6397 72.0641 78.2034 63.1597 86.3766 62.3446ZM49.7956 88.3548H32.7132L35.5107 76.5324H46.9979L49.7956 88.3548ZM87.8995 88.3548C83.4797 88.3548 79.4411 86.1629 77.0342 82.545L80.2915 80.8869C86.7464 89.36 99.9339 82.6715 96.8913 72.4368L99.4598 71.1292L100.149 70.7785C103.358 79.1021 96.8403 88.4813 87.8995 88.3548Z" fill="#F8FFFF"/>
</svg>
