<svg width="80" height="81" viewBox="0 0 80 81" fill="none" xmlns="http://www.w3.org/2000/svg">
<g clip-path="url(#clip0_120_1255)">
<path d="M32.2699 37.932C32.0316 37.932 31.7923 37.8775 31.5712 37.7671C31.0418 37.5025 30.7076 36.9618 30.7076 36.3704V33.0886H28.822C27.0516 33.0886 25.6113 31.6493 25.6113 29.8801V12.7982C25.6113 11.0287 27.052 9.58911 28.8226 9.58911H76.789C78.5596 9.58911 80.0001 11.0287 80.0001 12.7982V29.8802C80.0001 31.6495 78.5598 33.0887 76.7894 33.0887H39.254L33.2076 37.62C32.932 37.8262 32.6018 37.932 32.2699 37.932ZM28.8226 12.7122C28.7749 12.7122 28.7363 12.7507 28.7363 12.7982V29.8802C28.7363 29.9274 28.7748 29.9657 28.822 29.9657H32.2701C33.1329 29.9657 33.8326 30.6648 33.8326 31.5272V33.2477L37.7957 30.2776C38.066 30.075 38.3951 29.9655 38.733 29.9655H76.7893C76.8365 29.9655 76.8749 29.9272 76.8749 29.8801V12.7982C76.8749 12.7507 76.8363 12.7122 76.7888 12.7122H28.8226Z" fill="#1E959B"/>
<path d="M68.7954 18.765H36.8174C35.9546 18.765 35.2549 18.0653 35.2549 17.2025C35.2549 16.3397 35.9546 15.64 36.8174 15.64H68.7954C69.6582 15.64 70.3579 16.3397 70.3579 17.2025C70.3579 18.0655 69.6583 18.765 68.7954 18.765Z" fill="#1E959B"/>
<path d="M68.7951 26.1053H63.167C62.3042 26.1053 61.6045 25.4056 61.6045 24.5428C61.6045 23.6798 62.3042 22.9803 63.167 22.9803H68.7951C69.6579 22.9803 70.3576 23.6798 70.3576 24.5428C70.3576 25.4056 69.6581 26.1053 68.7951 26.1053Z" fill="#1E959B"/>
<path d="M55.3556 26.1053C54.7026 26.1053 54.1049 25.6821 53.8846 25.0685C53.6673 24.4632 53.8542 23.7674 54.3449 23.3519C54.8565 22.9189 55.6104 22.8622 56.1801 23.2163C56.7256 23.5553 57.0138 24.2175 56.8868 24.8475C56.7413 25.5686 56.0926 26.1053 55.3556 26.1053Z" fill="#1E959B"/>
<path d="M47.6986 26.1053H36.8174C35.9546 26.1053 35.2549 25.4056 35.2549 24.5428C35.2549 23.6798 35.9546 22.9803 36.8174 22.9803H47.6986C48.5614 22.9803 49.2611 23.6798 49.2611 24.5428C49.2611 25.4056 48.5614 26.1053 47.6986 26.1053Z" fill="#1E959B"/>
<path d="M11.68 20.1276C6.24395 20.1276 1.82129 15.7077 1.82129 10.275C1.82129 4.84224 6.24395 0.422485 11.68 0.422485C17.1163 0.422485 21.539 4.84239 21.539 10.2751C21.539 15.7078 17.1163 20.1276 11.68 20.1276ZM11.68 3.54554C7.96707 3.54554 4.94629 6.56445 4.94629 10.2751C4.94629 13.9858 7.96707 17.0047 11.68 17.0047C15.3932 17.0047 18.4139 13.9858 18.4139 10.2751C18.4139 6.56445 15.3932 3.54554 11.68 3.54554Z" fill="#1E959B"/>
<path d="M21.7977 37.9319H1.5625C0.699531 37.9319 0 37.2327 0 36.3704V26.0724C0 23.6873 1.94172 21.7468 4.32828 21.7468H19.0319C21.4184 21.7468 23.3602 23.6873 23.3602 26.0724V36.3704C23.3602 37.2327 22.6605 37.9319 21.7977 37.9319ZM3.125 34.8089H20.2352V26.0724C20.2352 25.4094 19.6953 24.8699 19.0319 24.8699H4.32828C3.66484 24.8699 3.125 25.4094 3.125 26.0724V34.8089Z" fill="#1E959B"/>
<path d="M47.7302 80.3727C47.3981 80.3727 47.0684 80.267 46.7927 80.0606L40.7463 75.5294H3.21063C1.44031 75.5294 0 74.0901 0 72.3207V55.239C0 53.4695 1.44047 52.0299 3.21109 52.0299H51.1775C52.9481 52.0299 54.3888 53.4695 54.3888 55.239V72.3209C54.3888 74.0901 52.9484 75.5295 51.1781 75.5295H49.2925V78.8112C49.2925 79.4026 48.9581 79.9433 48.4289 80.2078C48.2077 80.3182 47.9683 80.3727 47.7302 80.3727ZM3.21109 55.153C3.16359 55.153 3.125 55.1915 3.125 55.239V72.3209C3.125 72.368 3.16344 72.4065 3.21063 72.4065H41.267C41.605 72.4065 41.9341 72.5159 42.2044 72.7186L46.1675 75.6886V73.968C46.1675 73.1057 46.867 72.4065 47.73 72.4065H51.1781C51.2253 72.4065 51.2638 72.368 51.2638 72.3209V55.239C51.2638 55.1915 51.2252 55.153 51.1775 55.153H3.21109Z" fill="#1E959B"/>
<path d="M43.184 61.2058H11.2061C10.3432 61.2058 9.64355 60.5061 9.64355 59.6433C9.64355 58.7805 10.3431 58.0808 11.2061 58.0808H43.184C44.047 58.0808 44.7465 58.7805 44.7465 59.6433C44.7465 60.5063 44.047 61.2058 43.184 61.2058Z" fill="#1E959B"/>
<path d="M16.8332 68.5459H11.2051C10.3423 68.5459 9.64258 67.8464 9.64258 66.9834C9.64258 66.1206 10.3421 65.4209 11.2051 65.4209H16.8332C17.696 65.4209 18.3957 66.1206 18.3957 66.9834C18.3957 67.8464 17.6962 68.5459 16.8332 68.5459Z" fill="#1E959B"/>
<path d="M24.6454 68.5461C23.9917 68.5461 23.3964 68.1231 23.1759 67.5092C22.9567 66.8989 23.1473 66.1962 23.6472 65.7817C24.1315 65.3801 24.827 65.3109 25.3817 65.6061C25.9575 65.9125 26.2864 66.5681 26.1911 67.2126C26.0797 67.9678 25.4089 68.5461 24.6454 68.5461Z" fill="#1E959B"/>
<path d="M43.183 68.5459H32.3018C31.4389 68.5459 30.7393 67.8464 30.7393 66.9834C30.7393 66.1206 31.4389 65.4209 32.3018 65.4209H43.183C44.046 65.4209 44.7455 66.1206 44.7455 66.9834C44.7455 67.8464 44.046 68.5459 43.183 68.5459Z" fill="#1E959B"/>
<path d="M68.3198 62.5683C62.8836 62.5683 58.4609 58.1484 58.4609 52.7157C58.4609 47.283 62.8836 42.8631 68.3198 42.8631C73.7559 42.8631 78.1786 47.283 78.1786 52.7157C78.1786 58.1486 73.7559 62.5683 68.3198 62.5683ZM68.3198 45.9863C64.6067 45.9863 61.5859 49.0052 61.5859 52.7159C61.5859 56.4265 64.6067 59.4454 68.3198 59.4454C72.0328 59.4454 75.0536 56.4265 75.0536 52.7159C75.0536 49.0052 72.0328 45.9863 68.3198 45.9863Z" fill="#1E959B"/>
<path d="M78.4373 80.3727H58.2021C57.3393 80.3727 56.6396 79.6735 56.6396 78.8112V68.5132C56.6396 66.1281 58.5814 64.1876 60.9679 64.1876H75.6715C78.0581 64.1876 79.9998 66.1281 79.9998 68.5132V78.8112C79.9998 79.6735 79.3001 80.3727 78.4373 80.3727ZM59.7646 77.2496H76.8748V68.5132C76.8748 67.8502 76.335 67.3107 75.6715 67.3107H60.9679C60.3045 67.3107 59.7646 67.8502 59.7646 68.5132V77.2496Z" fill="#1E959B"/>
</g>
<defs>
<clipPath id="clip0_120_1255">
<rect width="80" height="79.9503" fill="white" transform="translate(0 0.422485)"/>
</clipPath>
</defs>
</svg>
