<svg width="140" height="54" viewBox="0 0 140 54" fill="none" xmlns="http://www.w3.org/2000/svg">
<path d="M73.7655 15.8996C70.714 13.4535 66.6476 11.9183 61.4975 11.9183C50.6186 11.9183 41.7948 21.3264 41.7948 32.9282C41.7948 44.53 50.6186 53.9496 61.4975 53.9496C66.6567 53.9496 70.714 52.4167 73.7655 49.9683V53.1809H84.3435V12.6618H73.7655V15.8996ZM63.091 44.2156C57.1694 44.2156 52.3752 39.1674 52.3752 32.9306C52.3752 26.6936 57.1694 21.6545 63.091 21.6545C66.0846 21.6545 68.9557 22.8431 71.0725 24.9585C73.1893 27.0741 74.3785 29.9433 74.3785 32.9351C74.3785 35.9269 73.1893 38.7961 71.0725 40.9116C68.9557 43.0271 66.0846 44.2156 63.091 44.2156ZM126.592 53.1901H137.169V20.677H126.592V53.1901ZM124.525 10.2088C124.525 12.1581 125.3 14.0276 126.679 15.4059C128.058 16.7842 129.929 17.5586 131.879 17.5586C133.83 17.5586 135.7 16.7842 137.08 15.4059C138.459 14.0276 139.234 12.1581 139.234 10.2088C139.234 4.58463 134.66 0.663066 128.04 0.529976C120.349 0.385414 110.645 4.55939 106.301 17.3957V12.6618H95.7298V53.1901H106.303V29.6308C106.303 14.4562 114.966 2.13624 127.976 2.26703C129.183 2.28707 130.38 2.4858 131.528 2.85676C129.64 2.94929 127.859 3.76439 126.556 5.13316C125.253 6.50191 124.526 8.31936 124.527 10.2088H124.525ZM42.8694 12.6618H27.9287L11.3671 28.3618V0.984318H0.789062V53.1901H11.3671V38.4308L27.9287 53.1901H42.7867L21.0244 32.9695L42.8694 12.6618Z" fill="white"/>
<path d="M22.3025 5.07575H24.858V3.91236H22.3025V2.14777H25.1565V0.984386H21.0557V8.07486H25.2644V6.91148H22.3025V5.07575ZM30.2929 7.02162C28.844 7.02162 27.8407 6.00968 27.8407 4.52962C27.8407 2.98991 28.8325 2.03763 30.1505 2.03763C30.7232 2.02125 31.2861 2.18763 31.7578 2.51263L32.3157 1.59476C31.7064 1.10142 30.9386 0.846165 30.1551 0.876537C27.8131 0.876537 26.525 2.49657 26.525 4.53421C26.525 6.74396 28.0174 8.1919 30.185 8.1919C31.1034 8.1919 32.0218 7.86834 32.4581 7.39105L31.9805 6.45943C31.4956 6.82814 30.9022 7.02585 30.2929 7.02162ZM35.1147 2.40248C34.8001 6.67742 34.0791 6.91148 33.5326 6.84034L33.5028 8.07486C34.9011 8.27909 35.8241 7.61593 36.2397 3.48556L36.3821 2.14777H38.4486V8.07486H39.6861V0.984386H35.2111L35.1147 2.40248ZM43.0659 6.03262V0.984386H41.8169V8.07486H42.9121L46.6272 3.04957V8.07486H47.874V0.984386H46.7788L43.0659 6.03262ZM56.7919 0.876537C54.6129 0.876537 53.1021 2.4828 53.1021 4.53421C53.1021 6.74396 54.6841 8.1919 56.7919 8.1919C58.8998 8.1919 60.4933 6.66136 60.4933 4.53421C60.4863 2.31988 58.8952 0.871948 56.785 0.871948L56.7919 0.876537ZM56.7919 7.02621C55.4648 7.02621 54.4201 5.95231 54.4201 4.53421C54.4201 3.06564 55.4349 2.04222 56.7919 2.04222C58.149 2.04222 59.1752 3.06564 59.1752 4.53421C59.1684 5.92706 58.2752 7.02162 56.785 7.02162L56.7919 7.02621ZM64.2886 3.66913C63.9701 3.67021 63.652 3.69013 63.3358 3.72879V2.14777H66.2358V0.984386H62.089V8.07486C62.5047 8.07486 63.1131 8.11617 63.9259 8.11617C65.6686 8.11617 66.6628 7.27632 66.6628 5.80545C66.672 4.49979 65.7696 3.66913 64.2886 3.66913ZM64.1256 6.95048C63.8639 6.95048 63.6205 6.93213 63.3358 6.91148V4.88529C63.6182 4.84759 63.9027 4.82765 64.1876 4.82564C65.0601 4.82564 65.4344 5.28456 65.4344 5.88805C65.4344 6.49156 65.0486 6.95048 64.1256 6.95048ZM71.294 5.11476L68.9014 0.984386H67.4044L70.6305 6.36305L69.7648 8.09781H71.092L74.6416 0.984386H73.3122L71.294 5.11476ZM79.0709 4.33458V4.31393C79.3838 4.1817 79.6488 3.95693 79.8302 3.6698C80.0117 3.38266 80.1009 3.04692 80.0857 2.70767C80.0857 1.72555 79.4474 0.954555 77.7529 0.954555C77.0434 0.954555 76.102 0.986681 75.7048 1.00504V8.06568C76.1204 8.09551 77.0342 8.11617 77.6818 8.11617C79.1834 8.11617 80.3199 7.44842 80.3199 5.98902C80.3448 5.60965 80.2324 5.23395 80.0031 4.93059C79.7737 4.62725 79.4429 4.4165 79.0709 4.33687V4.33458ZM76.9515 2.14548C77.1811 2.12482 77.4498 2.11564 77.7345 2.11564C78.4026 2.11564 78.8482 2.42084 78.8482 2.99679C78.8482 3.64618 78.3728 3.9399 77.7942 3.9399H76.9515V2.14548ZM77.7735 6.95048C77.4988 6.94986 77.2244 6.93301 76.9515 6.9V5.02527H77.8355C78.6162 5.02527 79.0709 5.33046 79.0709 5.92706C79.0709 6.59711 78.6162 6.95048 77.7735 6.95048ZM84.1819 3.36395C83.9109 3.3649 83.6403 3.38175 83.3714 3.41442V0.984386H82.1224V8.07486C82.5402 8.07486 83.2383 8.09551 83.9179 8.09551C85.8052 8.09551 86.8592 7.1547 86.8592 5.65401C86.8592 4.26574 86.0164 3.36395 84.1819 3.36395ZM84.0602 6.93213C83.8169 6.93213 83.601 6.91148 83.3714 6.9V4.58011C83.6538 4.55028 83.8972 4.52962 84.0809 4.52962C84.9534 4.52962 85.5412 4.88529 85.5412 5.67694C85.5435 6.5558 84.9717 6.93213 84.0602 6.93213ZM88.5285 6.6889C88.4268 6.67854 88.3243 6.69021 88.2276 6.7231C88.1311 6.756 88.0426 6.80933 87.9686 6.87946C87.8945 6.9496 87.8364 7.0349 87.7983 7.12952C87.7601 7.22415 87.7429 7.32588 87.7477 7.42777C87.7339 7.58135 87.78 7.73434 87.8762 7.85488C87.9724 7.97541 88.1115 8.05421 88.2644 8.07486C88.347 8.07486 88.4687 8.07486 88.5285 7.99455C88.5543 8.1533 88.5225 8.31606 88.4388 8.45348C88.3812 8.58284 88.2956 8.69798 88.1885 8.79076C88.0814 8.88353 87.9552 8.95169 87.8189 8.99043L88.1334 9.53885C88.5134 9.44284 88.8488 9.21919 89.0832 8.90544C89.3178 8.59168 89.4372 8.20689 89.4216 7.81556C89.4239 7.16388 89.0795 6.6889 88.5285 6.6889ZM92.4823 2.14777H94.7783V8.07486H96.0251V2.14777H98.3212V0.984386H92.4845L92.4823 2.14777ZM102.42 0.871948C100.241 0.871948 98.7299 2.47821 98.7299 4.52962C98.7299 6.73937 100.312 8.18729 102.42 8.18729C104.528 8.18729 106.121 6.65677 106.121 4.52962C106.123 2.31988 104.53 0.871948 102.422 0.871948H102.42ZM102.42 7.02162C101.09 7.02162 100.048 5.94772 100.048 4.52962C100.048 3.06105 101.06 2.03763 102.42 2.03763C103.779 2.03763 104.803 3.06105 104.803 4.52962C104.805 5.92706 103.912 7.02162 102.422 7.02162H102.42Z" fill="white"/>
</svg>
