<svg width="14" height="22" viewBox="0 0 14 22" fill="none" xmlns="http://www.w3.org/2000/svg">
<path opacity="0.15" d="M12.9299 0.99403C13.8223 1.89897 13.8218 3.36584 12.9292 4.2707L6.46422 10.8247L12.9292 17.3788C13.8217 18.2836 13.8222 19.7505 12.9299 20.6554C12.0373 21.5604 10.5897 21.5604 9.69706 20.6554L1.61634 12.4634C1.56063 12.4069 1.50805 12.3481 1.45929 12.2875C1.3616 12.1661 1.27806 12.037 1.20829 11.9024C1.06884 11.6334 0.985223 11.3425 0.95729 11.0472C0.894452 10.3825 1.11418 9.69513 1.61634 9.18605L9.69706 0.99403C10.5897 0.0891078 12.0373 0.0891078 12.9299 0.99403Z" fill="#F8FFFF"/>
</svg>
