<svg width="175" height="54" viewBox="0 0 175 54" fill="none" xmlns="http://www.w3.org/2000/svg">
<path d="M170.348 30.0101C168.894 32.6706 166.507 35.7419 164.329 36.2546C164.169 36.3362 163.989 36.3715 163.809 36.3566C163.082 36.4587 162.448 36.1526 161.836 35.6398C160.474 34.2975 159.865 31.5457 159.865 30.1121C159.968 28.1658 160.591 25.3012 161.226 23.2528C161.476 22.4478 161.784 21.6611 162.146 20.8984C160.899 21.5132 159.239 22.128 157.79 22.2407C157.334 22.263 156.877 22.2287 156.429 22.1387C156.163 23.5654 155.78 24.9686 155.286 26.3348C153.212 31.7605 149.681 36.4694 147.5 36.8775C146.36 37.0842 144.699 35.6506 144.076 33.0921C142.622 35.2398 140.755 37.3876 138.887 37.5943H138.781C138.105 37.6813 137.418 37.616 136.771 37.4036C136.124 37.1911 135.534 36.8368 135.046 36.3674C133.799 35.025 133.282 32.7834 133.282 29.8141C134.006 22.8555 141.792 17.3278 146.67 17.0191H146.983C150.928 16.917 151.548 19.1668 151.654 19.7843C151.758 20.7051 151.445 21.5239 150.838 21.7279C150.628 21.7279 150.214 21.932 149.694 22.1387C148.554 22.6488 147.1 23.1616 146.27 23.2636C145.853 23.2636 145.647 23.2636 145.453 23.0595C145.35 23.0595 145.246 22.8555 145.246 22.6488C145.14 22.2407 145.453 21.8434 145.97 21.1132C146.284 20.7051 147.217 19.4755 147.01 19.1695C146.74 19.0955 146.46 19.0611 146.18 19.0674C145.97 19.0674 145.764 19.1695 145.453 19.1695C141.914 19.7843 138.498 28.8933 138.92 33.3981C139.334 36.7754 141.825 33.7042 143.382 31.3498C143.303 29.1661 143.842 27.0039 144.939 25.1052C145.355 24.4931 147.326 23.9804 148.26 23.8784C148.382 23.797 148.53 23.7609 148.676 23.7763C148.987 23.7763 149.3 23.6743 149.61 23.6743C149.811 23.6204 150.022 23.6203 150.223 23.6741C150.423 23.7279 150.606 23.8337 150.751 23.9804C150.96 24.1844 150.96 24.4931 150.857 24.9012C149.61 28.1765 148.156 33.0921 148.26 34.217C149.3 33.4116 152.724 27.6664 154.488 21.1132C154.385 20.8071 154.281 20.5011 154.178 20.0903C153.761 17.6338 154.905 15.9962 155.942 15.1774C156.334 14.9 156.751 14.66 157.189 14.4606L157.292 14.3586C157.706 14.1545 158.433 13.8458 158.953 13.8458C159.166 13.8299 159.38 13.8649 159.576 13.9478C160.393 14.4606 160.393 15.3814 160.393 15.6902C160.27 17.1232 159.769 18.4995 158.939 19.6822C158.939 19.7843 158.836 19.7843 158.836 19.8863H158.939C159.456 19.8863 160.287 19.5775 160.807 19.3735C162.149 18.8201 163.327 17.9398 164.231 16.815L164.441 16.611C164.697 16.2864 165.014 16.013 165.374 15.8056C165.571 15.6774 165.793 15.5926 166.025 15.5569C166.258 15.5212 166.495 15.5355 166.722 15.5989C167.042 15.7848 167.325 16.0278 167.555 16.3157L167.658 16.4177C168.176 17.2231 168.279 18.3641 168.072 20.1037C167.969 21.4461 167.255 23.6877 166.515 26.1442C165.698 29.0087 164.854 31.978 164.751 33.4116C165.478 33.0008 167.035 31.4679 167.969 29.8276C170.459 25.6314 171.29 22.4582 171.29 22.4582C171.287 22.4323 171.287 22.4062 171.29 22.3803C171.295 22.3449 171.307 22.3108 171.325 22.2801C171.344 22.2493 171.368 22.2225 171.398 22.2013C171.427 22.18 171.46 22.1647 171.495 22.1563C171.53 22.1478 171.567 22.1464 171.603 22.1521C171.794 22.1085 171.994 22.1223 172.178 22.1916C172.361 22.261 172.519 22.3828 172.632 22.5414C173.669 24.0717 170.451 29.8034 170.348 30.0101Z" fill="white"/>
<path d="M173.151 41.9863C171.281 39.1191 166.618 38.8131 164.742 38.8131C163.842 38.8014 162.942 38.8354 162.045 38.9151C157.787 39.2211 151.973 40.1446 145.747 41.0628C138.688 42.1877 131.319 43.3152 125.3 43.7233C123.732 43.8414 122.321 43.9005 121.067 43.9005C116.924 43.9005 114.493 43.2642 113.777 42.0857C113.363 41.3697 113.571 40.346 114.401 39.0144C114.457 38.9599 114.494 38.888 114.504 38.8104C114.564 38.5472 114.568 38.2746 114.514 38.0101C114.461 37.7456 114.351 37.4951 114.194 37.2747C114.044 37.1302 113.864 37.0188 113.667 36.948C113.47 36.8771 113.26 36.8485 113.05 36.864C111.39 36.9687 109.002 39.1164 108.899 40.8588C108.692 42.4964 109.002 43.8119 109.626 44.8508L109.522 44.9529C108.589 46.4885 107.549 47.7154 106.512 49.149C106.305 49.455 105.992 49.7638 105.785 50.0698C105.474 50.3786 105.371 50.5826 105.265 50.5826C105.058 50.2739 104.748 48.8429 105.992 41.8816C107.439 33.3333 109.45 24.8873 112.013 16.5975C113.514 16.3207 114.976 15.8701 116.369 15.2552C116.759 15.1041 117.14 14.933 117.512 14.7424C115.642 21.8058 113.048 32.9632 116.475 37.162C117.409 38.3889 118.86 38.9016 120.626 38.7996C123.482 38.5929 126.231 36.6519 128.436 33.9243C130.674 31.1248 132.228 27.8544 132.977 24.3669C133.29 22.9333 133.184 20.6809 131.836 19.2473C130.903 18.2244 129.552 17.8137 127.995 18.1224C125.818 18.5305 122.91 21.0755 120.626 24.673C122.287 17.0969 125.711 6.86028 126.855 3.27894C127.062 2.76617 127.165 2.35811 127.268 2.15139C127.372 1.74332 127.475 1.23055 127.268 0.822483C127.042 0.621881 126.745 0.515986 126.441 0.527171C126.054 0.554588 125.672 0.622994 125.3 0.731205C124.885 0.835012 124.366 0.937924 123.743 1.03994C121.565 1.34599 121.356 1.85876 120.939 2.98363V3.08565C119.799 6.36361 119.382 7.69252 118.968 9.52882C118.814 10.2254 118.605 10.9093 118.345 11.5745C118.206 12.1647 118.032 12.7464 117.825 13.3169C117.411 13.2122 116.685 13.3169 115.438 13.3169C114.604 13.342 113.773 13.4101 112.947 13.5209C113.777 11.0644 114.607 8.60799 115.541 6.25354C115.586 6.15225 115.601 6.04014 115.582 5.93095C115.564 5.82175 115.514 5.72021 115.438 5.63876C115.231 5.33002 114.814 5.43204 114.711 5.43204C114.36 5.4714 114.013 5.54057 113.674 5.63876C113.257 5.74077 112.74 5.84279 112.22 5.94481C112.013 5.94481 111.806 6.04682 111.493 6.04682C110.353 6.14884 109.106 6.35556 108.899 7.48043C108.482 9.52882 107.965 11.6765 107.342 14.1357C106.403 14.1878 105.468 14.29 104.541 14.4417C102.877 14.6458 102.363 15.0565 102.047 15.6686V15.8754C102.047 16.3854 102.047 16.7962 102.36 17.1022C102.774 17.513 103.604 17.513 105.992 17.309H106.612C106.302 18.6379 105.886 19.9695 105.575 21.199L103.397 29.7899C102.474 31.3332 101.433 32.805 100.283 34.1928C99.9295 34.6614 99.5486 35.1096 99.1426 35.5351C97.9993 36.8774 97.169 37.6828 96.5483 37.8895C95.9249 37.9916 96.0284 35.8411 96.2353 34.6143C96.6518 32.4665 97.7924 29.9054 98.5192 28.2677C99.0391 26.8341 99.5564 25.7066 99.6598 24.6837C99.9729 22.536 99.8694 21.0997 99.246 20.4876C98.8295 20.0768 98.3123 19.9748 97.5855 20.1789C97.482 20.1789 97.2724 20.0768 97.169 20.0768C96.2353 20.1789 94.5747 21.4192 92.8134 23.0461C92.2935 23.4541 91.6701 23.9669 91.5667 24.0689C90.633 24.3777 90.3226 24.3777 90.113 24.3777C90.1212 24.2981 90.159 24.2245 90.2192 24.1709C91.1529 22.4313 91.0494 20.0768 90.4261 19.054C90.329 18.8576 90.1829 18.6888 90.0014 18.5634C89.82 18.438 89.6092 18.3601 89.3889 18.3372C88.7655 18.3372 86.6885 18.8499 85.6513 20.4849C84.9245 21.6098 84.821 23.0434 85.4444 24.681C83.7839 31.9484 80.0463 38.1929 78.9111 39.1137C78.8077 38.6036 78.9111 37.2721 79.2242 36.2492C80.0408 33.28 80.9882 29.806 81.5081 27.8543C81.715 27.0489 81.9219 26.4207 81.9219 26.3187C82.1352 25.4905 82.0244 24.6134 81.6115 23.8622C81.0916 22.9414 80.0544 21.9158 77.4602 21.9158H77.1471C72.2689 22.2246 64.4834 27.7523 63.7565 34.7136V34.8156C63.7565 34.9176 63.1359 35.7364 62.9263 36.1579C61.8891 37.7956 60.1251 40.252 59.1914 40.7621H59.0879C58.9818 40.7621 58.8783 40.6601 58.7749 40.354C58.568 39.5352 58.8783 38.2063 59.0879 37.3848C59.2948 36.362 59.5017 35.3364 59.8121 34.2116C59.9182 33.8035 60.0217 33.4062 60.1251 33.0867C60.4354 31.8571 60.8519 30.5255 61.0588 29.2986C61.5788 26.6355 61.3692 24.7938 60.6423 23.8729C60.469 23.6482 60.2508 23.4608 60.0013 23.3223C59.7518 23.1838 59.4762 23.0971 59.1914 23.0675C57.5308 23.0675 54.727 24.7052 52.1327 28.2892C52.3396 26.4448 52.1327 25.1133 51.5093 24.3991C51.3485 24.1679 51.1307 23.9808 50.8764 23.8554C50.6221 23.7301 50.3397 23.6705 50.0556 23.6823C48.7082 23.6823 46.7345 24.8072 44.8671 26.7536C43.6203 27.9805 42.3763 30.2436 41.3282 32.2813C41.8482 30.5389 42.3681 28.9013 42.7819 27.6744C43.0959 26.7545 43.3036 26.1397 43.4053 25.8301C43.4809 25.5543 43.4438 25.2603 43.3018 25.0112C43.1984 24.8072 42.6784 24.2058 40.0842 24.3991H39.9807C38.3202 24.5012 37.2821 24.8081 36.8665 25.32C36.6608 25.5386 36.5487 25.8271 36.5535 26.1254C36.6569 27.0462 35.9328 31.6531 35.3094 35.7472C34.7895 38.9204 34.3757 41.8897 34.2695 43.3233C34.2695 43.8334 34.2695 44.2441 34.4791 44.5502C34.6507 44.6961 34.8737 44.7695 35.0998 44.7542C35.2466 44.7708 35.3945 44.7346 35.5163 44.6522H35.6198C36.8665 44.4481 37.7975 44.1421 38.3202 43.7313C38.6305 43.4253 38.734 42.9259 38.8374 42.389C38.9408 41.9027 39.08 41.4245 39.2539 40.9581C39.3573 40.7514 39.3573 40.5473 39.4608 40.4453C39.6677 39.8305 41.4317 35.6344 42.1585 34.3028L42.3681 33.8948C42.9888 32.7672 43.6122 31.5403 44.2356 30.5148C44.7555 29.7094 45.2727 28.6731 46.103 27.9563C46.3752 27.7711 46.6474 27.6019 46.9197 27.4435H47.3362C47.6465 27.8543 46.8162 30.0047 46.1928 31.5403C45.6756 32.9712 45.0522 34.4934 44.7419 36.0425C43.702 40.3379 43.702 42.185 44.7419 43.0038C45.0592 43.2722 45.4644 43.4182 45.8825 43.4146C47.2436 43.3125 48.4768 41.4682 50.3469 36.3512C50.4504 36.1472 50.4504 35.9405 50.5538 35.7364C52.7316 31.1296 54.9094 26.8314 56.4692 26.7294H56.6788C56.8857 27.2395 56.3657 28.6731 55.8485 29.9027C55.3444 31.1705 54.9332 32.4723 54.6181 33.7981C54.0981 36.0479 53.3713 40.0399 54.9284 42.0883C55.2095 42.479 55.5837 42.7955 56.0181 43.0099C56.4525 43.2243 56.9336 43.3301 57.4192 43.3179C60.6396 43.4199 62.7139 39.7339 63.7511 37.0734C63.8564 39.0171 64.3754 40.4489 65.3082 41.3689C65.797 41.8385 66.3869 42.1932 67.0341 42.4066C67.6813 42.6199 68.3689 42.6864 69.0458 42.6011H69.1492C71.0194 42.3944 72.8868 40.2467 74.3405 38.0963C74.9612 40.6547 76.6244 42.0883 77.765 41.8843C79.9428 41.4735 83.4817 36.7647 85.5506 31.339C86.119 29.7354 86.5693 28.0935 86.8981 26.4261C87.603 26.7868 88.4017 26.9299 89.1902 26.8368C90.437 26.7348 91.9941 26.222 93.5457 25.4032C93.0258 26.4261 92.612 27.3469 92.5058 27.9617C91.7817 30.0101 91.0549 32.8746 91.0549 34.821C91.0549 36.1633 91.6756 38.8131 93.1292 40.1446C93.8561 40.8615 94.6863 41.1675 95.5166 41.0655H95.5983C95.7506 41.0646 95.9007 41.0287 96.0365 40.9608C98.1136 40.448 100.291 38.1956 102.055 35.8411C101.642 37.6828 101.331 39.4252 101.018 41.2668C99.981 46.9986 100.291 50.6846 101.745 52.3222C102.679 53.4498 104.029 53.4498 104.549 53.4498H104.756C107.454 53.2431 109.217 49.7638 110.472 47.4093C110.552 47.2253 110.656 47.0528 110.783 46.8966C110.783 46.7945 110.992 46.5905 111.096 46.3865C112.653 47.5113 115.04 48.0241 118.155 47.8174C118.401 47.8332 118.649 47.7984 118.881 47.7154C128.221 46.7945 134.553 45.8737 142.02 44.8508C145.445 44.3381 148.973 43.8253 153.021 43.3152C154.145 43.1126 155.286 43.0102 156.429 43.0092C162.448 42.6011 169.923 43.2159 171.374 48.9476V49.0497C171.48 49.4577 171.687 50.0725 172.19 49.9705C172.607 49.9705 172.814 49.5624 173.127 48.8456C173.23 48.7436 173.23 48.5369 173.334 48.4349C174.292 45.7744 174.292 43.624 173.151 41.9863ZM119.799 30.3269C120.836 28.3832 121.77 26.6408 122.807 25.2099C125.091 21.9319 126.131 21.5239 126.441 21.5239C126.497 21.5171 126.554 21.5227 126.608 21.5404C126.661 21.558 126.71 21.5872 126.751 21.6259C127.168 22.0366 127.271 23.2635 127.064 24.6971C126.751 26.9496 125.3 30.7376 123.743 33.5001C123.231 34.5412 122.527 35.479 121.666 36.2653C120.109 37.5942 119.695 36.5714 119.589 34.7297C119.486 33.6934 119.589 32.3645 119.799 30.3269ZM77.3322 24.9012C77.1253 25.2099 76.9184 25.7066 76.6081 26.2435C76.325 26.6682 76.0817 27.1175 75.8813 27.5858C75.4241 28.6503 75.0421 29.7447 74.7379 30.8611C74.4276 31.884 73.8042 34.8532 73.8042 36.3888C72.9876 37.4117 72.1437 38.8453 70.8969 39.4601C69.1329 40.3809 69.6529 35.672 69.7563 34.8532C70.4831 30.0423 73.2952 24.6166 75.9847 24.1146C76.181 24.0312 76.395 23.9962 76.6081 24.0125C77.1253 23.9105 77.3322 24.0125 77.4384 24.2166C77.5527 24.2756 77.5527 24.4824 77.3431 24.8904L77.3322 24.9012Z" fill="white"/>
<path d="M36.1371 12.0953C35.8349 16.0981 33.2297 18.6459 27.9405 20.5922C27.7336 20.5922 27.5267 20.5922 27.4233 20.3855C27.3714 20.3103 27.3437 20.2214 27.3437 20.1305C27.3437 20.0395 27.3714 19.9507 27.4233 19.8754C29.8106 17.2123 30.2244 15.4726 30.5375 13.937C31.0547 11.2765 30.434 10.2536 29.4976 9.53683C28.5639 8.92205 27.1102 8.71801 25.0359 8.82003H24.829C24.7228 8.82003 17.8737 9.43482 16.9346 15.5746C16.3112 19.4647 18.0752 20.5922 21.4997 22.638C22.912 23.4288 24.2648 24.3189 25.5477 25.3011C31.3623 29.4973 33.1263 32.5685 31.9857 36.5606C30.6246 41.2695 25.4524 47.0012 15.274 47.82H14.961C7.4885 48.3328 3.95779 45.7743 2.50685 44.1367C1.05592 42.499 0.429807 40.3486 0.846305 38.4023C2.50685 30.7268 9.77244 29.5993 11.9502 29.4973H12.7805C12.9901 29.4973 13.197 29.5993 13.197 29.8033C13.2078 29.8843 13.1939 29.9666 13.1571 30.0398C13.1202 30.113 13.0621 30.1736 12.9901 30.2141C12.8867 30.3161 6.96856 34.0021 7.17545 40.1473C7.28161 41.989 7.69539 43.2185 8.62911 44.0374C9.77244 45.0611 11.8486 45.4701 14.8575 45.2642H15.1679C22.33 44.6495 26.0567 39.8386 25.9642 35.6424C25.8716 31.4463 21.4072 28.9845 17.8683 26.9388L17.3484 26.63C13.9238 24.5843 9.97388 21.7171 10.2897 16.2914C10.6027 11.1745 17.0516 6.87365 25.6538 5.95282C30.7389 5.44005 33.3332 6.87365 34.58 8.10054C35.1183 8.61478 35.5365 9.23858 35.8054 9.9285C36.0744 10.6184 36.1875 11.3579 36.1371 12.0953Z" fill="white"/>
<path d="M142.322 13.0163C136.51 9.74097 142.528 5.44015 142.528 5.44015C144.605 4.01728 146.369 15.3707 142.322 13.0163Z" fill="white"/>
<path d="M154.988 6.97034C154.672 8.91056 153.589 10.6482 151.977 11.8027C150.523 12.8256 146.788 13.4404 146.165 13.0296C145.749 12.8256 145.852 12.4148 146.165 11.9047C145.722 12.0312 145.265 12.0998 144.804 12.1088C144.804 12.1088 144.181 6.66966 148.966 3.59842C150.836 2.98363 151.25 5.95286 150.006 8.51134C152.6 6.8737 155.195 6.05488 154.988 6.97034Z" fill="white"/>
</svg>
