<svg width="198" height="13" viewBox="0 0 198 13" fill="none" xmlns="http://www.w3.org/2000/svg">
<path fill-rule="evenodd" clip-rule="evenodd" d="M7.82796 12.8684C4.38792 12.8684 -0.157869 11.9533 1.09856 8.00594L3.57346 0.220388H7.70211L5.40003 7.4363C4.90443 9.00289 5.98815 9.99829 8.73857 9.99829C11.5132 9.99829 13.2164 8.98845 13.7136 7.4363L16.0097 0.220388H20.1114L17.6341 8.00594C16.4008 11.8974 11.3505 12.8684 7.82796 12.8684ZM32.926 4.15646C32.6456 5.03866 31.9248 5.35351 31.3221 5.35351H24.7709L25.4849 3.09588H31.9529C32.735 3.09588 33.1523 3.46739 32.926 4.15646ZM33.7186 0.220388H22.2773L18.3192 12.6548H22.4456L23.8523 8.22599H26.9606L29.2294 12.6548H34.6322L31.732 7.79711L32.4774 7.79742C34.3624 7.79742 36.2731 6.20151 36.9824 3.96239C37.8112 1.38501 36.1194 0.220388 33.7186 0.220388ZM43.9842 7.7732L47.7485 3.52227L48.7953 7.7732H43.9842ZM50.9609 0.127563H46.7879L34.6641 12.6548H39.727L41.7045 10.4092H49.4135L49.9547 12.6548H55.094L50.9609 0.127563ZM55.9482 12.655L59.908 0.220388H64.0245L61.0268 9.63188H72.0808L70.0955 12.655H55.9482ZM78.7181 9.00123H87.832L85.8538 0.9554L78.7181 9.00123ZM186.247 12.6441C183.713 12.6441 181.528 12.4044 179.733 11.9295L180.533 10.7296C181.848 11.1615 183.929 11.773 187.219 11.773C189.786 11.773 193.714 11.0421 194.4 9.0452C194.971 7.37945 191.256 7.24733 188.304 7.01885C185.677 6.80555 182.743 6.73851 181.924 5.35871C181.854 5.23969 181.621 4.88866 181.942 3.86852C182.632 1.67991 186.714 0.151471 191.869 0.151471C194.242 0.151471 196.488 0.388575 198 0.786173L197.244 1.98427C195.699 1.39156 193.374 1.04178 190.912 1.04178C188.056 1.04178 183.918 1.71245 183.367 3.44369C183.217 3.90865 183.204 4.25531 183.443 4.64407C184.022 5.58448 186.782 5.40985 189.581 5.46557C192.526 5.52461 195.841 5.65808 196.358 7.04494C196.404 7.16843 196.672 7.66478 196.357 8.66143C195.386 11.7312 190.291 12.6441 186.247 12.6441ZM162.218 12.4356L166.116 0.254483H179.711L179.424 1.16132H167.179L165.826 5.40985H178.084L177.795 6.32116H165.544L163.888 11.5301H176.132L175.843 12.4356H162.218ZM140.268 12.4356L144.172 0.127563L156.658 10.3982L159.925 0.254067H161.358L157.429 12.5706L144.823 2.08271L141.714 12.4141L140.268 12.4356ZM118.43 12.4356L122.305 0.254067H123.738L120.283 11.1141H131.683L131.258 12.4356H118.43ZM103.265 6.17199H112.134C113.432 6.17199 115.027 5.34135 115.429 4.05584C115.707 3.16033 116.435 1.43314 112.847 1.43314H104.756L103.265 6.17199ZM110.372 12.4349L107.794 7.33776H102.905L101.3 12.4349H99.8426L103.67 0.263838H114.145C115.437 0.263838 116.36 0.52433 116.77 1.11537C117.081 1.56422 117.544 2.47157 117.273 3.33122C116.617 5.4296 114.959 7.12155 113.251 7.12155H109.172L112.412 12.4281L110.372 12.4349ZM133.965 12.4356L137.823 0.254067H139.363L135.495 12.4356H133.965ZM93.0664 12.4356L96.9433 0.254067H98.4823L94.5953 12.4356H93.0664ZM88.6322 12.4356L88.0122 9.88406H78.0005L75.7521 12.4356H73.8734L84.6794 0.270283L87.1671 0.254483L90.3068 12.407L88.6322 12.4356Z" fill="white"/>
</svg>
